<?xml version="1.0" encoding="UTF-8" standalone="no"?>
<!-- Created with Inkscape (http://www.inkscape.org/) -->

<svg
   xmlns:dc="http://purl.org/dc/elements/1.1/"
   xmlns:cc="http://creativecommons.org/ns#"
   xmlns:rdf="http://www.w3.org/1999/02/22-rdf-syntax-ns#"
   xmlns:svg="http://www.w3.org/2000/svg"
   xmlns="http://www.w3.org/2000/svg"
   xmlns:sodipodi="http://sodipodi.sourceforge.net/DTD/sodipodi-0.dtd"
   xmlns:inkscape="http://www.inkscape.org/namespaces/inkscape"
   version="1.1"
   width="55"
   height="55"
   viewBox="0 0 55 55"
   id="svg2"
   xml:space="preserve"
   inkscape:version="0.48.5 r10040"
   sodipodi:docname="save-as-audio.svg"><sodipodi:namedview
     pagecolor="#ffffff"
     bordercolor="#666666"
     borderopacity="1"
     objecttolerance="10"
     gridtolerance="10"
     guidetolerance="10"
     inkscape:pageopacity="0"
     inkscape:pageshadow="2"
     inkscape:window-width="640"
     inkscape:window-height="480"
     id="namedview26"
     showgrid="false"
     inkscape:zoom="4.2909091"
     inkscape:cx="27.5"
     inkscape:cy="27.5"
     inkscape:window-x="0"
     inkscape:window-y="27"
     inkscape:window-maximized="0"
     inkscape:current-layer="svg2" /><metadata
     id="metadata25"><rdf:RDF><cc:Work
         rdf:about=""><dc:format>image/svg+xml</dc:format><dc:type
           rdf:resource="http://purl.org/dc/dcmitype/StillImage" /><dc:title /></cc:Work></rdf:RDF></metadata><defs
     id="defs33" /><g
     transform="matrix(0.55205508,0,0,0.55205508,77.118464,18.235971)"
     id="g4382"><g
       transform="translate(-80.093659,12.220029)"
       id="g4308"
       style="fill:none;stroke:#ffffff;stroke-opacity:1"><g
         id="g4310"
         style="fill:none;stroke:#ffffff;stroke-opacity:1"><path
           d="m 6.736,49.002 h 24.52 c 2.225,0 3.439,-1.447 3.439,-3.441 v -27.28 c 0,-1.73 -1.732,-3.441 -3.439,-3.441 h -4.389"
           id="path4312"
           style="fill:none;stroke:#ffffff;stroke-width:3.5;stroke-linecap:round;stroke-linejoin:round;stroke-opacity:1" /></g></g><g
       transform="translate(-80.093659,12.220029)"
       id="g4314"
       style="fill:none;stroke:#ffffff;stroke-opacity:1"><g
         id="g4316"
         style="fill:none;stroke:#ffffff;stroke-opacity:1"><path
           d="m 26.867,38.592 c 0,1.836 -1.345,3.201 -3.441,4.047 L 6.736,49.002 V 14.84 l 16.69,-8.599 c 2.228,-0.394 3.441,0.84 3.441,2.834 v 29.517 z"
           id="path4318"
           style="fill:none;stroke:#ffffff;stroke-width:3.5;stroke-linecap:round;stroke-linejoin:round;stroke-opacity:1" /></g></g><path
       d="m -70.669659,54.827029 c 0,0 -1.351,-0.543 -2.702,-0.543 -1.351,0 -2.703,0.543 -2.703,0.543"
       id="path4320"
       style="fill:none;stroke:#ffffff;stroke-width:2.25;stroke-linecap:round;stroke-linejoin:round;stroke-opacity:1" /><path
       d="m -70.669659,44.226029 c 0,0 -1.239,-0.543 -2.815,-0.543 -1.577,0 -2.59,0.543 -2.59,0.543"
       id="path4322"
       style="fill:none;stroke:#ffffff;stroke-width:2.25;stroke-linecap:round;stroke-linejoin:round;stroke-opacity:1" /><path
       d="m -70.669659,33.898029 c 0,0 -1.125,-0.544 -2.927,-0.544 -1.802,0 -2.478,0.544 -2.478,0.544"
       id="path4324"
       style="fill:none;stroke:#ffffff;stroke-width:2.25;stroke-linecap:round;stroke-linejoin:round;stroke-opacity:1" /><line
       style="fill:none;stroke:#ffffff;stroke-width:2.25;stroke-linecap:round;stroke-linejoin:round;stroke-opacity:1"
       x1="-66.884659"
       x2="-66.884659"
       y1="58.753029"
       y2="23.725029"
       id="line4326" /></g><g
     transform="matrix(1,0,0,-1,-24.850339,47.707501)"
     id="g4770"><g
       transform="translate(34.0803,-1006.42)"
       id="g4772"><polyline
         transform="matrix(-0.469241,0.469241,-0.469241,-0.469241,66.2906,1019.03)"
         style="fill:none;stroke:#ffffff;stroke-width:3.5;stroke-linecap:round;stroke-linejoin:round"
         points="51.562,15.306 41.17,16.188 42.053,5.794"
         id="polyline4774" /><path
         d="m 39.363241,1033.1291 -0.05636,9.9115 -8.750608,0.067"
         id="path4776"
         style="fill:none;stroke:#ffffff;stroke-width:2.5;stroke-linecap:round;stroke-linejoin:round;stroke-miterlimit:4;stroke-opacity:1;stroke-dasharray:none" /></g></g><g
     transform="matrix(0.69256196,0,0,0.66294507,-2.8783753,0.76199174)"
     style="display:block"
     display="block"
     id="clipping-audio"><g
       style="display:inline"
       display="inline"
       id="g3183"><g
         id="g3185"><polygon
           style="fill:#000000;stroke:#ffffff;stroke-width:3.5"
           points="43.818,48.914 10.932,48.914 10.932,6.088 31.874,6.088 43.818,18.027 "
           id="polygon3187" /><polyline
           style="fill:none;stroke:#ffffff;stroke-width:3.5"
           points="43.818,18.027 31.874,18.027 31.874,6.088    "
           id="polyline3189" /></g></g><path
       style="fill:#ffffff;stroke:#ffffff;stroke-width:3.5;display:inline"
       inkscape:connector-curvature="0"
       d="m 28.325,39.697 c -0.511,-1.457 -3.21,-1.073 -4.41,-0.07 -2.4,2.009 -0.424,4.396 2.324,3.277 1.564,-0.638 2.596,-1.748 2.086,-3.207 z"
       display="inline"
       id="path3191" /><line
       style="fill:none;stroke:#ffffff;stroke-width:2.25;display:inline"
       display="inline"
       x1="28.941"
       x2="28.941"
       y1="39.806"
       y2="26.966999"
       id="line3193" /><polygon
       style="fill:#ffffff;display:inline"
       display="inline"
       points="35.047,25.036 27.838,28.595 27.838,24.728 35.047,21.166 "
       id="polygon3195" /></g></svg>
