<?xml version="1.0" encoding="UTF-8" standalone="no"?>
<!-- Created with Inkscape (http://www.inkscape.org/) -->

<svg
   xmlns:dc="http://purl.org/dc/elements/1.1/"
   xmlns:cc="http://creativecommons.org/ns#"
   xmlns:rdf="http://www.w3.org/1999/02/22-rdf-syntax-ns#"
   xmlns:svg="http://www.w3.org/2000/svg"
   xmlns="http://www.w3.org/2000/svg"
   xmlns:sodipodi="http://sodipodi.sourceforge.net/DTD/sodipodi-0.dtd"
   xmlns:inkscape="http://www.inkscape.org/namespaces/inkscape"
   id="svg3116"
   version="1.1"
   inkscape:version="0.48.4 r9939"
   width="50"
   height="50"
   sodipodi:docname="beat6.svg">
  <metadata
     id="metadata3122">
    <rdf:RDF>
      <cc:Work
         rdf:about="">
        <dc:format>image/svg+xml</dc:format>
        <dc:type
           rdf:resource="http://purl.org/dc/dcmitype/StillImage" />
        <dc:title></dc:title>
      </cc:Work>
    </rdf:RDF>
  </metadata>
  <defs
     id="defs3120" />
  <sodipodi:namedview
     pagecolor="#ffffff"
     bordercolor="#FFFFFF"
     borderopacity="1"
     objecttolerance="10"
     gridtolerance="10"
     guidetolerance="10"
     inkscape:pageopacity="0"
     inkscape:pageshadow="2"
     inkscape:window-width="639"
     inkscape:window-height="734"
     id="namedview3118"
     showgrid="false"
     inkscape:zoom="9.7062378"
     inkscape:cx="28.425835"
     inkscape:cy="25.848289"
     inkscape:window-x="640"
     inkscape:window-y="27"
     inkscape:window-maximized="0"
     inkscape:current-layer="svg3116"
     showguides="true"
     inkscape:guide-bbox="true">
    <sodipodi:guide
       orientation="1,0"
       position="26.064909,38.539554"
       id="guide3532" />
    <sodipodi:guide
       orientation="0,1"
       position="-0.40567951,24.036511"
       id="guide3534" />
  </sodipodi:namedview>
  <path
     sodipodi:type="arc"
     style="fill:#FFFFFF"
     id="path3184"
     sodipodi:cx="13.793103"
     sodipodi:cy="21.957403"
     sodipodi:rx="3.5496957"
     sodipodi:ry="3.3975658"
     d="m 17.342799,21.957403 a 3.5496957,3.3975658 0 1 1 -7.099392,0 3.5496957,3.3975658 0 1 1 7.099392,0 z"
     transform="matrix(0,1,1,0,-7.9734095,7.5408406)" />
  <path
     transform="matrix(0,1,1,0,-0.03205054,7.3887106)"
     sodipodi:type="arc"
     style="fill:#FFFFFF"
     id="path3184-0"
     sodipodi:cx="13.793103"
     sodipodi:cy="21.957403"
     sodipodi:rx="3.5496957"
     sodipodi:ry="3.3975658"
     d="m 17.342799,21.957403 a 3.5496957,3.3975658 0 1 1 -7.099392,0 3.5496957,3.3975658 0 1 1 7.099392,0 z" />
  <path
     transform="matrix(0,1,1,0,8.1140717,7.1171911)"
     sodipodi:type="arc"
     style="fill:#FFFFFF"
     id="path3184-0-3"
     sodipodi:cx="13.793103"
     sodipodi:cy="21.957403"
     sodipodi:rx="3.5496957"
     sodipodi:ry="3.3975658"
     d="m 17.342799,21.957403 a 3.5496957,3.3975658 0 1 1 -7.099392,0 3.5496957,3.3975658 0 1 1 7.099392,0 z" />
  <path
     transform="matrix(0,1,1,0,15.860539,7.0103178)"
     sodipodi:type="arc"
     style="fill:#FFFFFF"
     id="path3184-0-3-1"
     sodipodi:cx="13.793103"
     sodipodi:cy="21.957403"
     sodipodi:rx="3.5496957"
     sodipodi:ry="3.3975658"
     d="m 17.342799,21.957403 a 3.5496957,3.3975658 0 1 1 -7.099392,0 3.5496957,3.3975658 0 1 1 7.099392,0 z" />
  <path
     sodipodi:type="arc"
     style="fill:#FFFFFF"
     id="path3184-9"
     sodipodi:cx="13.793103"
     sodipodi:cy="21.957403"
     sodipodi:rx="3.5496957"
     sodipodi:ry="3.3975658"
     d="m 17.342799,21.957403 a 3.5496957,3.3975658 0 1 1 -7.099392,0 3.5496957,3.3975658 0 1 1 7.099392,0 z"
     transform="matrix(0,1,1,0,-7.9116917,17.515276)" />
  <path
     transform="matrix(0,1,1,0,0.02966732,17.363146)"
     sodipodi:type="arc"
     style="fill:#FFFFFF"
     id="path3184-0-1"
     sodipodi:cx="13.793103"
     sodipodi:cy="21.957403"
     sodipodi:rx="3.5496957"
     sodipodi:ry="3.3975658"
     d="m 17.342799,21.957403 a 3.5496957,3.3975658 0 1 1 -7.099392,0 3.5496957,3.3975658 0 1 1 7.099392,0 z" />
  <path
     transform="matrix(0,1,1,0,8.1757893,17.091627)"
     sodipodi:type="arc"
     style="fill:#FFFFFF"
     id="path3184-0-3-5"
     sodipodi:cx="13.793103"
     sodipodi:cy="21.957403"
     sodipodi:rx="3.5496957"
     sodipodi:ry="3.3975658"
     d="m 17.342799,21.957403 a 3.5496957,3.3975658 0 1 1 -7.099392,0 3.5496957,3.3975658 0 1 1 7.099392,0 z" />
  <path
     transform="matrix(0,1,1,0,15.922256,16.984754)"
     sodipodi:type="arc"
     style="fill:#FFFFFF"
     id="path3184-0-3-1-5"
     sodipodi:cx="13.793103"
     sodipodi:cy="21.957403"
     sodipodi:rx="3.5496957"
     sodipodi:ry="3.3975658"
     d="m 17.342799,21.957403 a 3.5496957,3.3975658 0 1 1 -7.099392,0 3.5496957,3.3975658 0 1 1 7.099392,0 z" />
</svg>
