<?xml version="1.0" encoding="UTF-8" standalone="no"?>
<!-- Created with Inkscape (http://www.inkscape.org/) -->

<svg
   xmlns:dc="http://purl.org/dc/elements/1.1/"
   xmlns:cc="http://creativecommons.org/ns#"
   xmlns:rdf="http://www.w3.org/1999/02/22-rdf-syntax-ns#"
   xmlns:svg="http://www.w3.org/2000/svg"
   xmlns="http://www.w3.org/2000/svg"
   xmlns:sodipodi="http://sodipodi.sourceforge.net/DTD/sodipodi-0.dtd"
   xmlns:inkscape="http://www.inkscape.org/namespaces/inkscape"
   id="svg3116"
   version="1.1"
   inkscape:version="0.48.4 r9939"
   width="50"
   height="50"
   sodipodi:docname="complex2.svg">
  <metadata
     id="metadata3122">
    <rdf:RDF>
      <cc:Work
         rdf:about="">
        <dc:format>image/svg+xml</dc:format>
        <dc:type
           rdf:resource="http://purl.org/dc/dcmitype/StillImage" />
        <dc:title></dc:title>
      </cc:Work>
    </rdf:RDF>
  </metadata>
  <defs
     id="defs3120" />
  <sodipodi:namedview
     pagecolor="#ffffff"
     bordercolor="#666666"
     borderopacity="1"
     objecttolerance="10"
     gridtolerance="10"
     guidetolerance="10"
     inkscape:pageopacity="0"
     inkscape:pageshadow="2"
     inkscape:window-width="501"
     inkscape:window-height="603"
     id="namedview3118"
     showgrid="false"
     inkscape:zoom="7.0538402"
     inkscape:cx="24.35796"
     inkscape:cy="26.609224"
     inkscape:window-x="842"
     inkscape:window-y="136"
     inkscape:window-maximized="0"
     inkscape:current-layer="svg3116"
     showguides="true"
     inkscape:guide-bbox="true">
    <sodipodi:guide
       orientation="1,0"
       position="26.064909,38.539554"
       id="guide3532" />
    <sodipodi:guide
       orientation="0,1"
       position="-0.40567951,24.036511"
       id="guide3534" />
  </sodipodi:namedview>
  <path
     sodipodi:type="arc"
     style="fill:#FFFFFF"
     id="path3838"
     sodipodi:cx="4.6877069"
     sodipodi:cy="16.87697"
     sodipodi:rx="3.3483622"
     sodipodi:ry="3.4513888"
     d="m 8.0360692,16.87697 a 3.3483622,3.4513888 0 1 1 -6.6967245,0 3.3483622,3.4513888 0 1 1 6.6967245,0 z"
     transform="translate(17.740494,3.7688552)" />
  <path
     sodipodi:type="arc"
     style="fill:#FFFFFF"
     id="path3838-0"
     sodipodi:cx="4.6877069"
     sodipodi:cy="16.87697"
     sodipodi:rx="3.3483622"
     sodipodi:ry="3.4513888"
     d="m 8.0360692,16.87697 a 3.3483622,3.4513888 0 1 1 -6.6967245,0 3.3483622,3.4513888 0 1 1 6.6967245,0 z"
     transform="translate(6.020501,15.958353)" />
  <path
     sodipodi:type="arc"
     style="fill:#FFFFFF"
     id="path3838-1"
     sodipodi:cx="4.6877069"
     sodipodi:cy="16.87697"
     sodipodi:rx="3.3483622"
     sodipodi:ry="3.4513888"
     d="m 8.0360692,16.87697 a 3.3483622,3.4513888 0 1 1 -6.6967245,0 3.3483622,3.4513888 0 1 1 6.6967245,0 z"
     transform="translate(11.277195,-6.3407973)" />
  <path
     sodipodi:type="arc"
     style="fill:#FFFFFF"
     id="path3838-9"
     sodipodi:cx="4.6877069"
     sodipodi:cy="16.87697"
     sodipodi:rx="3.3483622"
     sodipodi:ry="3.4513888"
     d="m 8.0360692,16.87697 a 3.3483622,3.4513888 0 1 1 -6.6967245,0 3.3483622,3.4513888 0 1 1 6.6967245,0 z"
     transform="translate(25.602093,-3.8209986)" />
  <path
     sodipodi:type="arc"
     style="fill:#FFFFFF"
     id="path3838-5"
     sodipodi:cx="4.6877069"
     sodipodi:cy="16.87697"
     sodipodi:rx="3.3483622"
     sodipodi:ry="3.4513888"
     d="m 8.0360692,16.87697 a 3.3483622,3.4513888 0 1 1 -6.6967245,0 3.3483622,3.4513888 0 1 1 6.6967245,0 z"
     transform="translate(31.976544,4.7838221)" />
  <path
     sodipodi:type="arc"
     style="fill:#FFFFFF"
     id="path3838-6"
     sodipodi:cx="4.6877069"
     sodipodi:cy="16.87697"
     sodipodi:rx="3.3483622"
     sodipodi:ry="3.4513888"
     d="m 8.0360692,16.87697 a 3.3483622,3.4513888 0 1 1 -6.6967245,0 3.3483622,3.4513888 0 1 1 6.6967245,0 z"
     transform="translate(24.880907,11.529954)" />
  <path
     sodipodi:type="arc"
     style="fill:#FFFFFF"
     id="path3838-19"
     sodipodi:cx="4.6877069"
     sodipodi:cy="16.87697"
     sodipodi:rx="3.3483622"
     sodipodi:ry="3.4513888"
     d="m 8.0360692,16.87697 a 3.3483622,3.4513888 0 1 1 -6.6967245,0 3.3483622,3.4513888 0 1 1 6.6967245,0 z"
     transform="translate(31.678974,19.117704)" />
  <path
     sodipodi:type="arc"
     style="fill:#FFFFFF"
     id="path3838-97"
     sodipodi:cx="4.6877069"
     sodipodi:cy="16.87697"
     sodipodi:rx="3.3483622"
     sodipodi:ry="3.4513888"
     d="m 8.0360692,16.87697 a 3.3483622,3.4513888 0 1 1 -6.6967245,0 3.3483622,3.4513888 0 1 1 6.6967245,0 z"
     transform="translate(14.937584,15.815801)" />
</svg>
