<?xml version="1.0" encoding="utf-8"?>
<!-- Generator: Adobe Illustrator 16.0.1, SVG Export Plug-In . SVG Version: 6.00 Build 0)  -->
<!DOCTYPE svg PUBLIC "-//W3C//DTD SVG 1.1//EN" "http://www.w3.org/Graphics/SVG/1.1/DTD/svg11.dtd">
<svg version="1.1" id="Layer_1" xmlns="http://www.w3.org/2000/svg" xmlns:xlink="http://www.w3.org/1999/xlink" x="0px" y="0px"
	 width="65px" height="65px" viewBox="0 0 65 65" enable-background="new 0 0 65 65" xml:space="preserve">
<g>
	<path fill="#FFFFFF" d="M17.188,9.275c0,2.032,5.891,4.985,15.125,4.985c9.237,0,15.132-2.953,15.132-4.985
		S41.55,4.286,32.312,4.286C23.079,4.286,17.188,7.243,17.188,9.275z"/>
	<path fill="#FFFFFF" d="M48.792,14.333c-3.699,2.501-10.115,3.788-16.479,3.788c-6.363,0-12.777-1.287-16.48-3.788
		c-2.881,5.634-5.039,12.672-5.039,20.312c0,9.83,6.181,21.229,14.197,27.057c1.75,0.371,4.571,0.811,7.322,0.926
		c2.755-0.115,5.573-0.555,7.33-0.926c8.012-5.827,14.193-17.227,14.193-27.057C53.836,27.005,51.676,19.967,48.792,14.333z
		 M16.811,32.054l0.274-14.017l7.368,2.266L16.811,32.054z M32.312,35.896l-3.851-13.477h7.708L32.312,35.896z M40.176,20.303
		l7.37-2.266l0.272,14.017L40.176,20.303z"/>
	<path fill="#FFFFFF" d="M51.053,12.191c-2.694,3.905-10.756,5.93-18.74,5.93c-7.981,0-16.04-2.025-18.736-5.93
		c-0.963,0.916-1.493,1.913-1.493,2.961c0,4.326,9.057,7.836,20.229,7.836c11.177,0,20.233-3.51,20.233-7.836
		C52.546,14.103,52.017,13.104,51.053,12.191z"/>
</g>
</svg>
