<?xml version="1.0" encoding="utf-8"?>
<!-- Generator: Adobe Illustrator 16.0.1, SVG Export Plug-In . SVG Version: 6.00 Build 0)  -->
<!DOCTYPE svg PUBLIC "-//W3C//DTD SVG 1.1//EN" "http://www.w3.org/Graphics/SVG/1.1/DTD/svg11.dtd">
<svg version="1.1" id="Layer_1" xmlns="http://www.w3.org/2000/svg" xmlns:xlink="http://www.w3.org/1999/xlink" x="0px" y="0px"
	 width="65px" height="65px" viewBox="0 0 65 65" enable-background="new 0 0 65 65" xml:space="preserve">
<path fill="#FFFFFF" d="M10.369,45.743c-0.492-0.111-0.882-0.239-1.185-0.413v1.601L0.557,58.426h1.487l7.141-9.31v10.221h1.185
	V49.116l7.141,9.31h1.487l-8.628-11.495V45.743z"/>
<path fill="#FFFFFF" d="M43.595,59.337h1.185v-7.28c-0.329,0.777-0.728,1.518-1.185,2.217V59.337z"/>
<path fill="#FFFFFF" d="M45.781,48.265c-0.071,0.593-0.177,1.175-0.319,1.742l6.457,8.419h1.488L45.781,48.265z"/>
<path fill="#FFFFFF" d="M55.004,46.931V25.361c0.547-0.104,0.936-0.346,0.969-0.631c3.075-0.037,5.768-0.728,5.768-0.988v-0.093
	h-6.736v-0.542h6.736v-0.093c0-0.261-2.69-0.951-5.767-0.989c0-0.003,0.002-0.006,0.002-0.009c0-0.301-0.4-0.559-0.972-0.667v-4.564
	H53.82v4.564c-0.57,0.108-0.971,0.366-0.971,0.667c0,0.003,0,0.006,0,0.009c-2.047,0.025-3.921,0.339-4.947,0.624
	c-0.517,0.143-0.818,0.278-0.818,0.365v0.093h0.876h5.86v0.542h-5.793h-0.943v0.093c0,0.097,0.377,0.255,1.007,0.416
	c1.06,0.27,2.836,0.549,4.761,0.573c0.032,0.285,0.421,0.527,0.969,0.631v21.569l-3.616,4.817l0.715,1.152l2.901-3.784v10.221h1.184
	V49.116l7.141,9.31h1.487L55.004,46.931z"/>
<path fill="#FFFFFF" d="M10.301,26.895c0.009-0.092,0.031-0.199,0.067-0.311v-6.21c0.448-0.22,0.76-0.677,0.76-1.209
	c0-0.249-0.073-0.477-0.188-0.677l3.82-5.932c4.397,2.275,8.529,2.865,9.398,1.287c0.913-1.655-2.098-5.063-6.722-7.612
	C12.811,3.682,8.321,2.957,7.41,4.611C6.604,6.073,8.863,8.903,12.59,11.3c1.166-1.199,2.289-2.163,2.906-2.075l-5.542,8.605
	c-0.058-0.008-0.116-0.018-0.178-0.018c-0.745,0-1.352,0.604-1.352,1.351c0,0.264,0.08,0.507,0.209,0.716l-2.462,3.823l0.995,0.641
	l2.018-3.134v16.174L10.301,26.895z"/>
<path fill="#FFFFFF" d="M25.831,33.789c-3.716,0.138-9.459-0.962-10.752-3.349c-0.419-0.771-0.27-1.105,0.043-3.593
	c-0.286-0.015-0.556-0.025-0.815-0.034c-0.357-0.013-0.691-0.02-0.987-0.02c-1.016,0-1.652,0.074-1.671,0.247L9.842,44.016
	c-0.505,0.296,3.061,0.867,7.068,1.33C17.311,40.442,20.008,35.261,25.831,33.789z"/>
<path fill="#FFFFFF" d="M48.736,29.38c0.058,2.412-4.033,3.793-7.644,4.249c-1.219,0.152-2.334,0.199-3.382,0.159
	c2.808,0.649,3.993,1.699,4.597,2.217c0.424,0.008,0.854,0.013,1.287,0.015v1.44v1.433c0.457,0.7,0.855,1.438,1.185,2.218v-1.854
	V36.02c3.243-0.016,6.354-0.169,7.174-0.459v-5.456C51.953,29.617,49.231,29.417,48.736,29.38z"/>
<path fill="#FFFFFF" d="M32.368,33.846V32.49V29.39v-5.01h0.735l0.793,6.301c0.019,0.152,0.032,0.381,0.092,0.522
	c0.325,0.778,2.082,1.244,4.417,1.244c0.786,0,1.634-0.052,2.519-0.163c3.71-0.468,6.599-1.789,6.451-2.954
	c-0.012-0.085-0.018-0.117-0.016-0.117c0,0,0.009,0.054,0.016,0.117L46.02,18.543c-0.116-1.015-1.95-1.443-4.226-1.443
	c-4.032,0-9.459,1.341-9.212,3.134l0.373,2.96h-2.358l0.373-2.96c0.248-1.792-5.18-3.134-9.213-3.134
	c-2.276,0-4.108,0.428-4.225,1.443l-1.355,10.777c0.019-0.151,0.026-0.231,0.026-0.231s-0.011,0.078-0.027,0.24
	c-0.147,1.165,2.743,2.486,6.454,2.954c0.882,0.111,1.732,0.163,2.517,0.163c2.512,0,4.354-0.539,4.465-1.427l0.836-6.64h0.736
	v5.012v3.099v1.355c-6.768,0.309-12.162,5.893-12.162,12.738c0,7.044,5.711,12.753,12.754,12.753
	c7.042,0,12.753-5.709,12.753-12.753C44.529,39.738,39.136,34.154,32.368,33.846z M40.465,28.368
	c0.76-0.096,1.508-0.145,2.219-0.145c2.439,0,3.606,0.564,3.658,0.965c0.077,0.625-2.021,1.812-5.49,2.248
	c-0.763,0.098-1.51,0.146-2.22,0.146h-0.001c-2.438,0-3.608-0.562-3.656-0.964C34.896,29.992,36.996,28.805,40.465,28.368z
	 M24.921,31.582c-0.712,0-1.458-0.048-2.22-0.146c-3.47-0.436-5.569-1.623-5.49-2.249c0.05-0.4,1.218-0.964,3.657-0.964
	c0.711,0,1.458,0.049,2.219,0.145c3.469,0.437,5.569,1.624,5.49,2.25C28.526,31.02,27.358,31.582,24.921,31.582z"/>
</svg>
