<?xml version="1.0" encoding="utf-8"?>
<!-- Generator: Adobe Illustrator 16.0.1, SVG Export Plug-In . SVG Version: 6.00 Build 0)  -->
<!DOCTYPE svg PUBLIC "-//W3C//DTD SVG 1.1//EN" "http://www.w3.org/Graphics/SVG/1.1/DTD/svg11.dtd">
<svg version="1.1" id="Layer_1" xmlns="http://www.w3.org/2000/svg" xmlns:xlink="http://www.w3.org/1999/xlink" x="0px" y="0px"
	 width="65px" height="65px" viewBox="0 0 65 65" enable-background="new 0 0 65 65" xml:space="preserve">
<g>
	<path fill="#FFFFFF" d="M32.852,54.471L38.62,42.88c-1.858,0.287-3.788,0.441-5.769,0.441s-3.91-0.154-5.77-0.441L32.852,54.471z"
		/>
	<path fill="#FFFFFF" d="M10.041,19.345c-0.007,0.012-0.011,0.023-0.018,0.036c-0.02,0.044-0.04,0.088-0.059,0.133
		c-0.061,0.137-0.125,0.273-0.183,0.412c-0.062,0.151-0.117,0.305-0.173,0.458c-0.053,0.138-0.107,0.274-0.156,0.414
		c-0.051,0.155-0.097,0.314-0.145,0.471c-0.043,0.139-0.088,0.277-0.125,0.417c-0.045,0.163-0.08,0.326-0.118,0.489
		c-0.032,0.138-0.068,0.274-0.096,0.413c-0.035,0.175-0.062,0.352-0.09,0.527c-0.021,0.129-0.047,0.258-0.064,0.388
		c-0.038,0.289-0.066,0.578-0.087,0.869c-0.01,0.129-0.011,0.259-0.016,0.39c-0.001,0.034-0.002,0.068-0.003,0.102
		c0,0.001,0,0.001,0,0.002c0.069,2.445,0.958,4.758,2.499,6.821c3.955,5.296,12.169,8.948,21.646,8.948s17.691-3.651,21.646-8.948
		c1.542-2.065,2.433-4.38,2.497-6.828c0-0.001,0.002-0.002,0.002-0.003c-0.002-0.047-0.003-0.095-0.006-0.143
		c-0.004-0.096-0.002-0.193-0.009-0.29c-0.021-0.31-0.052-0.618-0.093-0.923c-0.014-0.107-0.036-0.214-0.053-0.321
		c-0.031-0.199-0.062-0.398-0.102-0.596c-0.024-0.122-0.058-0.241-0.085-0.362c-0.041-0.181-0.08-0.363-0.129-0.542
		c-0.034-0.125-0.076-0.249-0.113-0.372c-0.052-0.172-0.101-0.345-0.16-0.516c-0.042-0.126-0.092-0.25-0.139-0.375
		c-0.062-0.167-0.122-0.333-0.19-0.498c-0.051-0.125-0.108-0.248-0.164-0.371c-0.072-0.162-0.142-0.324-0.221-0.484
		c-0.023-0.052-0.051-0.104-0.077-0.158c-0.008-0.014-0.017-0.027-0.025-0.042C51.966,12.811,43.154,8.498,32.852,8.498
		c-1.87,0-3.734,0.144-5.535,0.427C19.176,10.204,12.719,14.264,10.041,19.345z M32.852,33.593c-7.302,0-13.22-4.042-13.22-9.027
		s5.918-9.027,13.22-9.027s13.221,4.042,13.221,9.027S40.153,33.593,32.852,33.593z"/>
	<path fill="#FFFFFF" d="M54.193,35.924c-0.786,0.721-1.646,1.398-2.569,2.032l2.362,0.848c-0.086,1.201-0.154,2.16-0.191,2.683
		l-0.501-0.18l-0.513,4.176c-0.697,1.488-1.747,2.891-3.115,4.16l1.383-11.305c-2.97,1.919-6.559,3.371-10.532,4.2l7.814,8.226
		c-0.276,0.209-0.559,0.417-0.854,0.617c-0.432,0.292-0.88,0.567-1.34,0.831l-6.082-6.401l-4.799,9.639
		c-0.793,0.063-1.595,0.101-2.404,0.101s-1.611-0.037-2.405-0.101l-4.799-9.639l-6.082,6.401c-0.459-0.265-0.908-0.539-1.34-0.831
		c-0.295-0.2-0.578-0.408-0.854-0.617l7.813-8.226c-3.972-0.829-7.561-2.284-10.531-4.2l1.383,11.305
		c-1.368-1.271-2.419-2.675-3.119-4.161l-0.509-4.175l-0.5,0.18c-0.037-0.522-0.106-1.481-0.192-2.683l2.363-0.848
		c-0.924-0.634-1.783-1.313-2.569-2.032c-0.845-0.771-1.606-1.588-2.272-2.447c0.156,2.177,0.317,4.414,0.435,6.063
		c0.085,1.182,0.148,2.062,0.171,2.39c0.006,0.097,0.02,0.191,0.03,0.287c0.275,2.878,1.564,5.533,3.6,7.8
		c1.271,1.415,2.831,2.678,4.614,3.751c3.71,2.229,8.386,3.632,13.436,3.843c0.44,0.018,0.883,0.03,1.329,0.03
		c0.447,0,0.888-0.013,1.329-0.03c5.05-0.211,9.724-1.612,13.434-3.843c1.784-1.073,3.344-2.335,4.613-3.749
		c2.037-2.269,3.326-4.924,3.602-7.803c0.01-0.096,0.024-0.189,0.031-0.286c0.023-0.328,0.086-1.208,0.171-2.391
		c0.118-1.648,0.277-3.886,0.434-6.062C55.799,34.336,55.036,35.152,54.193,35.924z"/>
</g>
</svg>
