<?xml version="1.0" encoding="utf-8"?>
<!-- Generator: Adobe Illustrator 16.0.1, SVG Export Plug-In . SVG Version: 6.00 Build 0)  -->
<!DOCTYPE svg PUBLIC "-//W3C//DTD SVG 1.1//EN" "http://www.w3.org/Graphics/SVG/1.1/DTD/svg11.dtd">
<svg version="1.1" id="Layer_1" xmlns="http://www.w3.org/2000/svg" xmlns:xlink="http://www.w3.org/1999/xlink" x="0px" y="0px"
	 width="65px" height="65px" viewBox="0 0 65 65" enable-background="new 0 0 65 65" xml:space="preserve">
<path fill="#FFFFFF" d="M57.139,16.782c-9.302,5.105-22.361,4.19-32.136,3.495c9.387-0.208,22.728-0.281,31.062-6.365
	c-0.363-0.338-0.848-0.688-1.5-1.06c-8.68-4.931-34.596-5.365-44.04,0c-2.87,1.63-2.526,2.882-2.581,4.339
	c-0.072,1.942,0.177,4.662,0.423,6.733c0.197,1.658,0.611,4.031,0.942,5.658c0.196,0.918,0.322,1.504,0.418,1.943
	c0.864,3.956,2.338,8.976,3.99,13.169c0.643,1.569,0.834,2.063,1.398,3.28c1.398,2.874,1.768,3.835,3.545,4.994
	c0.244,0.147,0.572,0.336,0.822,0.471c-2.307-1.339-6.305-14.651-6.711-32.739c0.571,7.94,6.652,32.795,9.557,33.812
	c0,0-1.465-0.417-2.57-0.938c0,0.303,0.002,0.605,0.002,0.909c0,4.269,25.57,4.271,25.57,0c0-0.304,0.001-0.606,0.001-0.909
	c-1.104,0.521-2.569,0.938-2.569,0.938c2.902-1.018,8.984-25.872,9.557-33.812c-0.406,18.088-4.403,31.4-6.712,32.739
	c0.249-0.135,0.579-0.323,0.821-0.471c1.777-1.159,2.146-2.12,3.544-4.994c0.565-1.217,0.759-1.711,1.401-3.28
	c1.652-4.193,3.125-9.213,3.99-13.169c0.096-0.439,0.221-1.025,0.417-1.943c0.33-1.627,0.745-4,0.942-5.658
	C57.275,19.289,57.145,17.533,57.139,16.782z M26.459,55.331l-0.008-0.001l-0.01-0.001c-0.862-10.396-1.5-21.725-0.768-32.108
	c0.24,2.854,2.411,32.066,5.135,32.467C29.157,55.627,27.848,55.498,26.459,55.331z M38.648,55.329l-0.01,0.001l-0.009,0.001
	c-1.388,0.167-2.698,0.296-4.349,0.356c2.723-0.4,4.894-29.613,5.134-32.467C40.148,33.604,39.51,44.934,38.648,55.329z"/>
</svg>
