<?xml version="1.0" encoding="utf-8"?>
<!-- Generator: Adobe Illustrator 16.0.1, SVG Export Plug-In . SVG Version: 6.00 Build 0)  -->
<!DOCTYPE svg PUBLIC "-//W3C//DTD SVG 1.1//EN" "http://www.w3.org/Graphics/SVG/1.1/DTD/svg11.dtd">
<svg version="1.1" id="Layer_1" xmlns="http://www.w3.org/2000/svg" xmlns:xlink="http://www.w3.org/1999/xlink" x="0px" y="0px"
	 width="65px" height="65px" viewBox="0 0 65 65" enable-background="new 0 0 65 65" xml:space="preserve">
<g>
	<g>
		<circle fill="#FFFFFF" cx="50.292" cy="3.589" r="1.414"/>
		<path fill="#FFFFFF" d="M47.63,8.245c0.554-0.553,0.554-1.446,0.004-1.997c-0.556-0.551-1.449-0.551-2.002,0.002
			c-0.551,0.549-0.551,1.443,0,1.995C46.185,8.796,47.078,8.796,47.63,8.245z"/>
		<circle fill="#FFFFFF" cx="60.398" cy="13.679" r="1.413"/>
		<circle fill="#FFFFFF" cx="56.738" cy="17.333" r="1.413"/>
	</g>
	<path fill="#FFFFFF" d="M59.737,9.053l-5.022-5.015c-0.119-0.119-0.28-0.189-0.45-0.189c-0.169,0-0.331,0.07-0.451,0.189
		L45.99,11.85l-0.229,1.773L34.024,25.337c-1.929-1.364-4.408-2.459-7.027-1.894c-5.164,1.111-5.739,5.476-8.465,7.937
		c-5.383,4.861-9.872,2.366-14.833,8.329c-8.115,9.759,10.57,28.442,20.328,20.326c5.963-4.958,3.47-9.449,8.329-14.831
		c2.459-2.727,6.831-3.301,7.943-8.462c0.565-2.62-0.53-5.102-1.897-7.03l11.735-11.723l1.777-0.228l7.822-7.807
		c0.119-0.121,0.188-0.284,0.188-0.454C59.925,9.336,59.856,9.172,59.737,9.053z M20.561,50.652l-1.903,1.907
		c-0.077,0.075-0.181,0.115-0.286,0.115c-0.106,0-0.209-0.04-0.286-0.115l-6.907-6.91c-0.155-0.157-0.155-0.412,0-0.569l1.905-1.905
		c0.075-0.075,0.179-0.117,0.286-0.117s0.209,0.042,0.285,0.117l6.906,6.909C20.72,50.239,20.72,50.496,20.561,50.652z
		 M30.671,37.442c-0.146,0.675-0.473,1.312-0.996,1.836c-1.439,1.439-3.775,1.439-5.217,0c-1.439-1.441-1.439-3.779,0-5.216
		c0.523-0.524,1.164-0.854,1.837-0.997c1.182-0.253,2.464,0.077,3.38,0.997C30.593,34.978,30.923,36.26,30.671,37.442z"/>
</g>
</svg>
