<?xml version="1.0" encoding="utf-8"?>
<!-- Generator: Adobe Illustrator 16.0.1, SVG Export Plug-In . SVG Version: 6.00 Build 0)  -->
<!DOCTYPE svg PUBLIC "-//W3C//DTD SVG 1.1//EN" "http://www.w3.org/Graphics/SVG/1.1/DTD/svg11.dtd">
<svg version="1.1" id="Layer_1" xmlns="http://www.w3.org/2000/svg" xmlns:xlink="http://www.w3.org/1999/xlink" x="0px" y="0px"
	 width="65px" height="65px" viewBox="0 0 65 65" enable-background="new 0 0 65 65" xml:space="preserve">
<path fill="#FFFFFF" d="M35.033,8.943c-1.875-0.331-5.52-0.154-5.508,0.529v3.775h6.596C35.588,13.248,35.246,11.182,35.033,8.943z"
	/>
<path fill="#FFFFFF" d="M41.631,8.945c-1.874-0.332-5.51-0.157-5.51,0.528v3.775h6.596C42.184,13.248,41.843,11.182,41.631,8.945z"
	/>
<path fill="#FFFFFF" d="M28.438,8.951c-1.871-0.328-5.506-0.154-5.507,0.521v3.775h6.595C28.992,13.248,28.65,11.187,28.438,8.951z"
	/>
<path fill="#FFFFFF" d="M21.843,8.947c-1.875-0.329-5.517-0.154-5.509,0.525v3.775h6.597C22.396,13.248,22.056,11.184,21.843,8.947z
	"/>
<path fill="#FFFFFF" d="M48.227,8.958c-1.872-0.324-5.51-0.152-5.51,0.515v3.775h6.598C48.779,13.248,48.439,11.19,48.227,8.958z"/>
<path fill="#FFFFFF" d="M6.913,14.976v3.455h2.826v3.672c2.175,0,2.778,29.531,2.867,34.648c-1.618,0.043-2.867,0.326-2.867,0.67
	c0,0.373,1.478,0.676,3.298,0.676c1.821,0,3.297-0.303,3.297-0.676v-4.442l0,0V21.914c2.174,0,2.779,25.887,2.867,30.397
	c-1.615,0.043-2.867,0.326-2.867,0.669c0,0.374,1.478,0.677,3.299,0.677c1.82,0,3.298-0.303,3.298-0.677v-4.441l0,0V21.914
	c1.767,0,2.498,17.141,2.756,25.958c-1.563,0.054-2.756,0.331-2.756,0.667c0,0.373,1.476,0.677,3.298,0.677
	c1.82,0,3.297-0.304,3.297-0.677v-4.442V21.914c1.504,0,2.256,12.391,2.607,21.521c-1.489,0.065-2.607,0.337-2.607,0.661
	c0,0.374,1.477,0.677,3.299,0.677c1.82,0,3.297-0.303,3.297-0.677v-4.442l0,0v-17.74c1.271,0,2.005,8.84,2.414,17.089
	c-1.391,0.079-2.414,0.341-2.414,0.65c0,0.374,1.479,0.677,3.299,0.677s3.297-0.303,3.297-0.677v-4.441l0,0V21.914
	c1.045,0,1.726,5.963,2.162,12.664c-1.261,0.095-2.162,0.343-2.162,0.635c0,0.373,1.479,0.677,3.299,0.677
	c1.822,0,3.297-0.304,3.299-0.677V30.77v-8.856c0.803,0,1.394,3.552,1.82,8.252c-1.079,0.111-1.82,0.339-1.82,0.604
	c0,0.374,1.477,0.676,3.297,0.676c1.822,0,3.299-0.303,3.299-0.676V18.431h2.826v-3.455H6.913z"/>
<path fill="#FFFFFF" d="M54.821,8.945c-1.872-0.332-5.507-0.157-5.507,0.528v3.775h6.596C55.373,13.248,55.033,11.182,54.821,8.945z
	"/>
<path fill="#FFFFFF" d="M16.334,13.248c-0.533,0-0.873-2.058-1.086-4.29c-1.872-0.323-5.509-0.152-5.509,0.515v3.775H16.334z"/>
</svg>
