<?xml version="1.0" encoding="utf-8"?>
<!-- Generator: Adobe Illustrator 16.0.1, SVG Export Plug-In . SVG Version: 6.00 Build 0)  -->
<!DOCTYPE svg PUBLIC "-//W3C//DTD SVG 1.1//EN" "http://www.w3.org/Graphics/SVG/1.1/DTD/svg11.dtd">
<svg version="1.1" id="Layer_1" xmlns="http://www.w3.org/2000/svg" xmlns:xlink="http://www.w3.org/1999/xlink" x="0px" y="0px"
	 width="65px" height="65px" viewBox="0 0 65 65" enable-background="new 0 0 65 65" xml:space="preserve">
<g>
	<path fill="#FFFFFF" d="M33.748,38.956l19.217-23.94c0.507-0.041,0.985-0.164,1.502-0.483l1.563,1.376l-0.143,0.162
		c-0.405,0.459-0.428,1.101,0.03,1.505c0.462,0.405,1.093,0.299,1.497-0.161l0.978-1.11c0.405-0.46,0.431-1.101-0.03-1.505
		c-0.459-0.404-1.092-0.3-1.497,0.16l-0.259,0.294l-1.401-1.233c0,0,0.288-0.144,0.304-0.161l2.285-2.597l1.311,1.153l0.026-0.03
		c-0.405,0.46-0.43,1.101,0.031,1.506c0.46,0.404,1.092,0.299,1.497-0.16l0.978-1.111c0.404-0.459,0.429-1.1-0.031-1.505
		c-0.459-0.404-1.093-0.3-1.497,0.16l-0.236,0.267l-1.4-1.233c1.707-1.985,1.368-3.833,0.003-5.035l-0.182-0.159l0.592,0.506
		l0.006-0.005l-0.002,0.002l0.002-0.002l-0.006,0.005l-0.669-0.575l-0.181-0.16c-1.367-1.201-3.241-1.303-4.994,0.641l-0.809-0.712
		l0.235-0.267c0.404-0.46,0.21-1.292-0.249-1.697c-0.46-0.405-1.311-0.492-1.717-0.033l-0.977,1.111
		c-0.405,0.46-0.211,1.293,0.249,1.697s1.312,0.493,1.716,0.032l-0.026,0.03l1.092,0.961L50.27,9.248
		c-0.016,0.017-0.495-0.008-0.495-0.007l-0.81-0.712l0.26-0.294c0.405-0.459,0.209-1.293-0.249-1.697
		c-0.459-0.404-1.311-0.492-1.715-0.032l-0.978,1.11c-0.405,0.46-0.21,1.293,0.248,1.697c0.46,0.404,1.312,0.492,1.716,0.032
		l0.143-0.162l0.971,0.854c-0.251,0.554-0.259,0.982-0.234,1.489L34.447,26.744l-0.854-0.752l-0.015,0.017
		c0.403-0.459,0.209-1.293-0.25-1.697c-0.46-0.405-1.312-0.491-1.715-0.032l-0.978,1.111c-0.406,0.459-0.21,1.292,0.248,1.696
		c0.461,0.405,1.312,0.492,1.716,0.033l0.225-0.255l0.813,0.716l-5.81,6.032c-6.06-2.995-13.637-1.663-18.315,3.653
		c-5.591,6.352-4.991,16.053,1.359,21.644s16.025,4.981,21.616-1.369C37.168,52.224,37.488,44.586,33.748,38.956z M12.721,56.81
		c-5.183-4.562-5.686-12.461-1.123-17.642c4.562-5.184,12.46-5.686,17.642-1.124s5.686,12.46,1.124,17.642
		C25.801,60.867,17.902,61.371,12.721,56.81z"/>
	<path fill="#FFFFFF" d="M27.934,39.526c-4.362-3.841-11.013-3.417-14.854,0.946c-3.84,4.363-3.416,11.014,0.947,14.854
		c4.363,3.842,11.014,3.418,14.854-0.945S32.298,43.367,27.934,39.526z M21.865,53.637l-6.323-5.567
		c-0.605-0.532-0.766-1.342-0.232-1.947s1.355-0.55,1.961-0.018l6.324,5.567c0.604,0.533,0.765,1.342,0.231,1.947
		C23.294,54.224,22.471,54.169,21.865,53.637z"/>
</g>
</svg>
