<?xml version="1.0" encoding="utf-8"?>
<!-- Generator: Adobe Illustrator 16.0.1, SVG Export Plug-In . SVG Version: 6.00 Build 0)  -->
<!DOCTYPE svg PUBLIC "-//W3C//DTD SVG 1.1//EN" "http://www.w3.org/Graphics/SVG/1.1/DTD/svg11.dtd">
<svg version="1.1" id="Layer_1" xmlns="http://www.w3.org/2000/svg" xmlns:xlink="http://www.w3.org/1999/xlink" x="0px" y="0px"
	 width="65px" height="65px" viewBox="0 0 65 65" enable-background="new 0 0 65 65" xml:space="preserve">
<g>
	<path fill="#FFFFFF" d="M53.188,62.076c0.084,0.045,0.187,0.045,0.273-0.002l1.636-0.904c0.209-0.115,0.337-0.327,0.337-0.557
		v-28.99c0-0.228-0.128-0.442-0.337-0.558l-1.636-0.904c-0.087-0.046-0.189-0.046-0.273,0c-0.086,0.047-0.137,0.13-0.137,0.223
		v31.469C53.051,61.945,53.102,62.028,53.188,62.076z"/>
</g>
<path fill="#FFFFFF" d="M31.88,56.654c1.18-1.609,1.977-3.156,2.641-4.562c-0.419-0.058-0.793-0.205-1.104-0.449
	c-1.404-1.115-1.78-4.514,0.233-6.768c2.014-2.253,5.191-2.477,6.598-1.361c0.043,0.035,0.088,0.074,0.127,0.113
	c0.98-0.775,2.059-1.553,3.279-2.463c3.717-2.766,0.492-8.959-3.113-12.692L53.99,12.724c0.996-0.034,1.714-0.132,2.881-1.417
	l0.959,0.763l-0.121,0.134c-0.35,0.392-0.357,0.926,0.064,1.262c0.422,0.335,0.98,0.235,1.328-0.156l0.848-0.947
	c0.35-0.393,0.359-0.929-0.062-1.264c-0.422-0.334-0.98-0.236-1.328,0.156l0.043-0.05l-1.16-0.922l1.926-2.157l1.162,0.922
	l-0.014,0.014c-0.352,0.392-0.359,0.929,0.063,1.264C61,10.66,61.561,10.561,61.91,10.17l0.845-0.946
	c0.351-0.394,0.36-0.929-0.062-1.265c-0.422-0.334-0.98-0.234-1.33,0.159l-0.064,0.067l-0.965-0.769
	c0.85-1.169,0.836-3.023-0.355-3.968l-0.404-0.32c-1.189-0.945-3.129-0.644-4.207,0.346l-1.03-0.819l0.062-0.07
	c0.35-0.392,0.129-1.113-0.293-1.447c-0.424-0.335-1.214-0.419-1.564-0.028l-0.847,0.947c-0.351,0.392-0.128,1.111,0.296,1.448
	c0.422,0.334,1.213,0.419,1.562,0.026l0.012-0.014l0.698,0.553l-1.927,2.155l-0.697-0.552l-0.047,0.052
	c0.351-0.392,0.127-1.113-0.293-1.447c-0.424-0.336-1.215-0.42-1.564-0.029l-0.846,0.945c-0.35,0.393-0.127,1.113,0.295,1.447
	c0.422,0.336,1.211,0.422,1.562,0.029l0.119-0.135l1.025,0.813c-1.147,1.302-1.125,1.985-0.994,2.917L36.098,24.925
	c-4.512-2.716-10.384-5.572-12.645-1.649c-0.741,1.289-1.376,2.425-2.021,3.465c0.048,0.032,0.094,0.068,0.138,0.104
	c1.406,1.116,1.653,4.131-0.359,6.385c-2.015,2.253-5.529,2.893-6.935,1.777c-0.31-0.245-0.527-0.568-0.656-0.947
	c-1.355,0.855-2.842,1.858-4.322,3.228c-7.67,7.102,0.076,14.853,3.708,17.737C16.639,57.906,25.758,64.985,31.88,56.654z
	 M25.295,39.441c-0.191,0.156-0.439,0.23-0.697,0.209c-0.26-0.021-0.5-0.137-0.676-0.321c-0.221-0.233-0.3-0.541-0.232-0.823
	c-0.363,0.079-0.956,0.316-1.686,1.014c-1.204,1.15-2.119,2.649-3.156,3.377c-1.113,0.783-1.836,1.265-2.66,1.342
	c-0.82,0.073-1.35-0.098-1.729-0.557c-0.299-0.368-0.214-0.922,0.197-1.258c0.191-0.156,0.44-0.229,0.698-0.209
	c0.261,0.021,0.499,0.139,0.675,0.324c0.223,0.23,0.301,0.539,0.234,0.818c0.361-0.076,0.953-0.312,1.684-1.013
	c1.205-1.149,2.119-2.647,3.156-3.376c1.111-0.781,1.836-1.265,2.659-1.341c0.821-0.075,1.356,0.097,1.731,0.557
	C25.793,38.553,25.706,39.107,25.295,39.441z M24.096,51.412c-0.542-0.273-0.812-0.738-0.873-1.514
	c-0.062-0.776,0.322-1.529,0.949-2.697c0.586-1.086,1.996-2.191,2.995-3.505c0.606-0.797,0.753-1.388,0.774-1.739
	c-0.283,0.112-0.62,0.091-0.898-0.075c-0.227-0.132-0.385-0.335-0.451-0.573c-0.068-0.236-0.033-0.479,0.1-0.683
	c0.279-0.44,0.842-0.614,1.279-0.397c0.543,0.27,0.814,0.737,0.876,1.512c0.06,0.777-0.321,1.532-0.952,2.699
	c-0.584,1.086-1.994,2.188-2.992,3.502c-0.606,0.799-0.754,1.391-0.773,1.74c0.282-0.109,0.619-0.088,0.896,0.076
	c0.225,0.133,0.387,0.334,0.451,0.572c0.066,0.236,1.752,1.793,1.62,1.996C26.814,52.766,24.533,51.627,24.096,51.412z"/>
<polygon fill="#FFFFFF" points="12.764,51.491 6.574,62.109 16.375,54.52 "/>
</svg>
