<?xml version="1.0" encoding="utf-8"?>
<!-- Generator: Adobe Illustrator 16.0.1, SVG Export Plug-In . SVG Version: 6.00 Build 0)  -->
<!DOCTYPE svg PUBLIC "-//W3C//DTD SVG 1.1//EN" "http://www.w3.org/Graphics/SVG/1.1/DTD/svg11.dtd">
<svg version="1.1" id="Layer_1" xmlns="http://www.w3.org/2000/svg" xmlns:xlink="http://www.w3.org/1999/xlink" x="0px" y="0px"
	 width="65px" height="65px" viewBox="0 0 65 65" enable-background="new 0 0 65 65" xml:space="preserve">
<path fill="#FFFFFF" d="M61,7.991C61,9.314,60.242,10,58.883,10H9.118C7.758,10,7,9.314,7,7.991V6.996C7,5.673,7.758,5,9.118,5
	h49.765C60.242,5,61,5.673,61,6.996V7.991z"/>
<path fill="#FFFFFF" d="M8,13v43.604C8,57.928,8.968,59,10.327,59h3.472C15.158,59,16,57.928,16,56.604V13H8z M11.837,27.684
	c-0.922,0-1.669-0.729-1.669-1.626c0-0.899,0.748-1.626,1.669-1.626c0.923,0,1.671,0.728,1.671,1.626
	C13.508,26.956,12.761,27.684,11.837,27.684z"/>
<path fill="#FFFFFF" d="M19,13v38.531C19,52.855,19.968,54,21.327,54h3.472C26.158,54,27,52.855,27,51.531V13H19z M23.127,27.684
	c-0.923,0-1.67-0.729-1.67-1.626c0-0.899,0.748-1.626,1.67-1.626c0.923,0,1.67,0.728,1.67,1.626
	C24.797,26.956,24.05,27.684,23.127,27.684z"/>
<path fill="#FFFFFF" d="M30,13v34.583C30,48.907,31.018,50,32.376,50h3.472C37.208,50,38,48.907,38,47.583V13H30z M34.17,27.684
	c-0.922,0-1.669-0.729-1.669-1.626c0-0.899,0.747-1.626,1.669-1.626c0.924,0,1.672,0.728,1.672,1.626
	C35.842,26.956,35.094,27.684,34.17,27.684z"/>
<path fill="#FFFFFF" d="M41,13v29.833C41,44.157,42.098,45,43.457,45h3.472C48.288,45,49,44.157,49,42.833V13H41z M45.25,27.684
	c-0.922,0-1.669-0.729-1.669-1.626c0-0.899,0.747-1.626,1.669-1.626c0.924,0,1.672,0.728,1.672,1.626
	C46.922,26.956,46.174,27.684,45.25,27.684z"/>
<path fill="#FFFFFF" d="M52,13v24.333C52,38.657,53.098,40,54.457,40h3.472C59.288,40,60,38.657,60,37.333V13H52z M56.25,27.684
	c-0.922,0-1.669-0.729-1.669-1.626c0-0.899,0.747-1.626,1.669-1.626c0.924,0,1.672,0.728,1.672,1.626
	C57.922,26.956,57.174,27.684,56.25,27.684z"/>
</svg>
