<?xml version="1.0" encoding="utf-8"?>
<!-- Generator: Adobe Illustrator 16.0.1, SVG Export Plug-In . SVG Version: 6.00 Build 0)  -->
<!DOCTYPE svg PUBLIC "-//W3C//DTD SVG 1.1//EN" "http://www.w3.org/Graphics/SVG/1.1/DTD/svg11.dtd">
<svg version="1.1" id="Layer_1" xmlns="http://www.w3.org/2000/svg" xmlns:xlink="http://www.w3.org/1999/xlink" x="0px" y="0px"
	 width="65px" height="65px" viewBox="0 0 65 65" enable-background="new 0 0 65 65" xml:space="preserve">
<path fill="#FFFFFF" d="M51.36,5.491c0,0-2.053,7.74-9.006,14.487L7.813,53.5c0,0-2.688,2.971-3.589,4.987
	c-0.177,0.395-0.095,0.858,0.207,1.169l0.799,0.826c0.358,0.366,0.924,0.425,1.349,0.14c1.095-0.735,3.174-2.194,4.638-3.615
	l0.072-0.07c-0.902-1.384-1.873-3.077-1.483-3.454l4.04,4.164c0.682-0.662,0.664-1.787-0.041-2.513l-0.319-0.329l6.099-5.92
	c-0.903-1.383-1.873-3.076-1.483-3.453l4.041,4.163c0.681-0.661,0.662-1.786-0.042-2.511l-0.318-0.33l8.155-7.916
	c-0.905-1.384-1.872-3.075-1.485-3.453l4.043,4.164c0.682-0.662,0.662-1.787-0.043-2.514l-0.318-0.328L43.647,25.53
	c-0.903-1.383-1.873-3.075-1.483-3.453l4.041,4.164c0.68-0.662,0.661-1.786-0.043-2.513l-0.318-0.328
	c6.931-6.679,14.662-8.487,14.662-8.487C61.694,13.761,52.549,4.338,51.36,5.491z M23.317,44.269
	c-0.644,0.624-1.704,0.575-2.37-0.11c-0.664-0.686-0.683-1.748-0.039-2.373c0.644-0.624,1.704-0.574,2.369,0.111
	C23.943,42.582,23.962,43.644,23.317,44.269z M26.854,40.837c-0.644,0.624-1.705,0.575-2.372-0.11
	c-0.664-0.686-0.682-1.749-0.038-2.373c0.644-0.625,1.705-0.576,2.37,0.109C27.48,39.15,27.498,40.213,26.854,40.837z M33.476,34.41
	c-0.644,0.625-1.705,0.575-2.371-0.11c-0.665-0.687-0.683-1.748-0.039-2.373c0.644-0.625,1.705-0.576,2.37,0.11
	C34.102,32.724,34.119,33.786,33.476,34.41z M37.012,30.978c-0.645,0.625-1.704,0.575-2.37-0.11
	c-0.665-0.686-0.684-1.748-0.04-2.373s1.705-0.575,2.371,0.111C37.638,29.292,37.655,30.354,37.012,30.978z M40.548,27.546
	c-0.644,0.625-1.704,0.576-2.37-0.11c-0.665-0.687-0.683-1.749-0.039-2.373s1.703-0.576,2.369,0.111
	C41.174,25.859,41.191,26.922,40.548,27.546z"/>
</svg>
