<?xml version="1.0" encoding="utf-8"?>
<!-- Generator: Adobe Illustrator 16.0.1, SVG Export Plug-In . SVG Version: 6.00 Build 0)  -->
<!DOCTYPE svg PUBLIC "-//W3C//DTD SVG 1.1//EN" "http://www.w3.org/Graphics/SVG/1.1/DTD/svg11.dtd">
<svg version="1.1" id="Layer_1" xmlns="http://www.w3.org/2000/svg" xmlns:xlink="http://www.w3.org/1999/xlink" x="0px" y="0px"
	 width="65px" height="65px" viewBox="0 0 65 65" enable-background="new 0 0 65 65" xml:space="preserve">
<path fill="#FFFFFF" d="M58.504,6.219c-0.034-0.091-1.399-3.088-3.739-3.795c-0.099-0.031-3.454,2.856-4.233,3.698
	c-4.307,4.65-7.623,9.941-9.1,14.518c-0.979,3.036-3.221,5.622-5.243,7.806c-0.311,0.335-1.531,1.636-1.826,1.954
	c0,0-2.031,2.138-4.014,4.203C27.84,37.215,8.155,58.47,8.023,58.691c-0.037,0.041-0.072,0.084-0.104,0.129
	c-0.38,0.563-0.376,1.318,0.012,2.128c0.357,0.744,1.007,1.46,1.831,2.017c1.47,0.991,3.122,1.217,4.065,0.609
	c0.205-0.082,0.402-0.19,0.586-0.335c0.011-0.009,0.02-0.019,0.03-0.028c0,0,0,0,0.001,0c0.459-0.499,27.264-32.151,28.992-34.424
	c2.434-2.519,6.707-11.496,6.863-11.804c0.005-0.009,0.008-0.018,0.012-0.026c1.062-2.731,2.998-5.625,5.756-8.604
	C57.096,7.243,58.518,6.261,58.504,6.219z M13.692,62.717c-0.505,0.748-2.146,0.574-3.522-0.355
	c-0.719-0.484-1.279-1.098-1.583-1.729c-0.271-0.565-0.294-1.064-0.064-1.405c0.025-0.036,0.052-0.071,0.082-0.104
	c0.586-0.632,2.129-0.427,3.44,0.458c0.719,0.485,1.281,1.099,1.582,1.729C13.898,61.878,13.922,62.376,13.692,62.717z
	 M20.607,55.188c-1.815-1.252-3.488-2.694-4.997-4.298c0.22-0.233,0.438-0.466,0.659-0.698c1.493,1.595,3.156,3.023,4.96,4.261
	C21.021,54.697,20.813,54.943,20.607,55.188z M22.266,53.227c-1.76-1.246-3.388-2.664-4.863-4.23c0.221-0.234,0.44-0.467,0.66-0.697
	c1.459,1.557,3.077,2.963,4.824,4.193C22.68,52.737,22.473,52.982,22.266,53.227z M23.922,51.268
	c-1.715-1.224-3.304-2.611-4.746-4.143c0.221-0.232,0.439-0.464,0.66-0.694c1.428,1.52,3.004,2.894,4.706,4.103
	C24.336,50.777,24.128,51.022,23.922,51.268z M25.865,48.963c-1.659-1.195-3.201-2.545-4.604-4.029
	c0.221-0.233,0.441-0.465,0.662-0.695c1.387,1.473,2.914,2.811,4.562,3.99C26.278,48.473,26.072,48.718,25.865,48.963z
	 M38.199,34.264c-1.061-1.23-2.215-2.375-3.452-3.425l0.04-0.044c0.202-0.218,0.409-0.438,0.615-0.658
	c1.221,1.039,2.363,2.169,3.419,3.379C38.619,33.76,38.412,34.009,38.199,34.264z M39.775,32.367
	c-1.034-1.19-2.156-2.299-3.357-3.319c0.064-0.068,0.131-0.138,0.196-0.208c0.151-0.164,0.303-0.329,0.456-0.497
	c1.186,1.009,2.296,2.103,3.324,3.274C40.198,31.856,39.99,32.107,39.775,32.367z M41.305,30.512
	c-1.016-1.157-2.115-2.238-3.287-3.231c0.206-0.241,0.412-0.485,0.615-0.734c1.17,0.991,2.27,2.064,3.287,3.212
	C41.734,29.987,41.529,30.238,41.305,30.512z M43.009,28.397c-0.009,0.009-0.016,0.016-0.022,0.025
	c-0.013,0.017-0.028,0.036-0.042,0.054c-1.017-1.162-2.12-2.243-3.301-3.235c0.187-0.26,0.368-0.525,0.546-0.793
	c1.213,1.014,2.35,2.117,3.396,3.303C43.393,27.981,43.199,28.2,43.009,28.397z M50.412,15.292
	c-1.113-1.303-2.331-2.511-3.641-3.614c0.184-0.261,0.37-0.522,0.561-0.781c1.271,1.066,2.46,2.23,3.555,3.479
	C50.717,14.684,50.561,14.989,50.412,15.292z M52.001,12.535c-1.052-1.178-2.19-2.273-3.407-3.277
	c0.199-0.248,0.402-0.494,0.607-0.741c1.195,0.986,2.316,2.058,3.358,3.207C52.365,11.995,52.181,12.265,52.001,12.535z
	 M53.184,10.875c-1.026-1.128-2.132-2.18-3.311-3.146c0.209-0.241,0.421-0.48,0.636-0.718c1.163,0.956,2.255,1.991,3.274,3.099
	C53.577,10.366,53.377,10.621,53.184,10.875z M54.838,8.855c-0.992-1.096-2.063-2.116-3.205-3.054
	c0.224-0.232,0.449-0.46,0.676-0.687c1.127,0.932,2.187,1.942,3.174,3.022C55.262,8.377,55.047,8.616,54.838,8.855z"/>
</svg>
