<?xml version="1.0" encoding="utf-8"?>
<!-- Generator: Adobe Illustrator 16.0.1, SVG Export Plug-In . SVG Version: 6.00 Build 0)  -->
<!DOCTYPE svg PUBLIC "-//W3C//DTD SVG 1.1//EN" "http://www.w3.org/Graphics/SVG/1.1/DTD/svg11.dtd">
<svg version="1.1" id="Layer_1" xmlns="http://www.w3.org/2000/svg" xmlns:xlink="http://www.w3.org/1999/xlink" x="0px" y="0px"
	 width="65px" height="65px" viewBox="0 0 65 65" enable-background="new 0 0 65 65" xml:space="preserve">
<path fill="#FFFFFF" d="M52.121,12.367c0.471-0.07,0.983,0.104,1.343,0.506c0.55,0.613,0.536,1.52-0.028,2.025
	s-1.467,0.419-2.016-0.193c-0.361-0.402-0.478-0.931-0.355-1.391c0,0-23.242,20.645-28.637,25.582c0,0-0.725,0.82-1.891,2.578
	c-0.529,0.8-1.171,1.545-1.882,2.183l-1.722,1.541c-0.861-0.368-2.397,0.241-3.021,0.801l-3.125,2.799
	c-0.624,0.56-1.459,2.073-1.188,2.972l-3.345,2.995c-0.37,0.332-0.379,0.926-0.019,1.327l1.007,1.125
	c0.358,0.4,0.952,0.458,1.322,0.126l3.345-2.995c0.861,0.368,2.459-0.296,3.082-0.854l3.125-2.8
	c0.624-0.559,1.398-2.018,1.126-2.916l1.747-1.564c0.697-0.624,1.469-1.157,2.302-1.594c1.575-0.825,2.616-1.501,2.616-1.501
	l0.932,1.04c0.599,0.667,1.582,0.761,2.196,0.211l28.082-25.154c0.615-0.552,0.629-1.54,0.031-2.207l-0.931-1.04l0.974-0.873
	c-0.484,0.093-1.022-0.081-1.396-0.497c-0.549-0.613-0.536-1.519,0.028-2.025s1.468-0.42,2.017,0.192
	c0.373,0.418,0.486,0.972,0.34,1.442l0.633-0.566c0.489-0.438,0.5-1.221,0.025-1.751l-1.895-2.116
	c-0.475-0.529-1.255-0.604-1.744-0.167L52.121,12.367z M15.531,50.777c-0.564,0.506-1.467,0.42-2.015-0.193
	c-0.55-0.611-0.536-1.52,0.028-2.024c0.564-0.506,1.467-0.42,2.016,0.192C16.109,49.365,16.097,50.271,15.531,50.777z
	 M55.955,17.992l-1.91,1.711l-0.521-0.584c-0.056,0.27-0.19,0.519-0.404,0.71c-0.213,0.191-0.477,0.298-0.749,0.323l0.521,0.583
	l-1.896,1.699l-0.521-0.583c-0.055,0.269-0.189,0.518-0.403,0.709c-0.215,0.192-0.478,0.298-0.749,0.324l0.521,0.583l-1.896,1.698
	l-0.521-0.583c-0.055,0.269-0.189,0.519-0.402,0.71c-0.214,0.19-0.478,0.297-0.75,0.323l0.521,0.583l-1.896,1.698l-0.521-0.582
	c-0.055,0.268-0.188,0.518-0.403,0.709c-0.214,0.191-0.476,0.298-0.749,0.323l0.521,0.583l-1.896,1.699l-0.521-0.583
	c-0.056,0.268-0.19,0.519-0.403,0.709c-0.215,0.191-0.477,0.298-0.749,0.324l0.522,0.582l-1.896,1.699l-0.522-0.583
	c-0.056,0.269-0.189,0.519-0.403,0.709c-0.214,0.192-0.476,0.298-0.749,0.324l0.522,0.582l-1.896,1.698l-0.523-0.583
	c-0.054,0.269-0.188,0.519-0.402,0.71c-0.213,0.191-0.477,0.298-0.749,0.323l0.521,0.582l-1.896,1.698l-0.521-0.583
	c-0.057,0.27-0.189,0.519-0.403,0.71s-0.477,0.298-0.749,0.323l0.522,0.582l-3.604,3.229l-0.888-0.992l3.271-2.93
	c-0.209-0.087-0.404-0.223-0.568-0.405c-0.549-0.612-0.535-1.52,0.029-2.025s1.469-0.419,2.016,0.193
	c0.164,0.183,0.277,0.394,0.341,0.609l1.231-1.103c-0.208-0.088-0.404-0.223-0.568-0.405c-0.549-0.612-0.536-1.52,0.029-2.025
	s1.468-0.419,2.017,0.193c0.162,0.183,0.276,0.393,0.339,0.609l1.231-1.103c-0.208-0.088-0.403-0.223-0.567-0.405
	c-0.549-0.613-0.536-1.52,0.028-2.025s1.468-0.419,2.017,0.193c0.164,0.183,0.275,0.393,0.34,0.608l1.231-1.103
	c-0.209-0.088-0.403-0.222-0.568-0.404c-0.549-0.613-0.536-1.52,0.028-2.025c0.566-0.507,1.469-0.419,2.017,0.192
	c0.165,0.183,0.276,0.393,0.342,0.609l1.23-1.103c-0.208-0.088-0.404-0.223-0.568-0.405c-0.549-0.612-0.535-1.52,0.029-2.025
	c0.564-0.505,1.468-0.419,2.017,0.193c0.163,0.183,0.276,0.393,0.339,0.609l1.232-1.103c-0.209-0.088-0.404-0.223-0.569-0.405
	c-0.548-0.613-0.535-1.52,0.03-2.025c0.564-0.506,1.467-0.419,2.016,0.193c0.163,0.183,0.276,0.393,0.341,0.609l1.23-1.103
	c-0.209-0.088-0.404-0.223-0.567-0.405c-0.55-0.613-0.536-1.52,0.028-2.025s1.468-0.419,2.016,0.193
	c0.165,0.182,0.277,0.393,0.342,0.609l1.23-1.103c-0.209-0.088-0.404-0.223-0.568-0.406c-0.549-0.612-0.537-1.519,0.029-2.024
	c0.564-0.506,1.467-0.419,2.016,0.193c0.164,0.182,0.276,0.392,0.34,0.608L55.065,17L55.955,17.992z"/>
</svg>
