<?xml version="1.0" encoding="utf-8"?>
<!-- Generator: Adobe Illustrator 16.0.1, SVG Export Plug-In . SVG Version: 6.00 Build 0)  -->
<!DOCTYPE svg PUBLIC "-//W3C//DTD SVG 1.1//EN" "http://www.w3.org/Graphics/SVG/1.1/DTD/svg11.dtd">
<svg version="1.1" id="Layer_1" xmlns="http://www.w3.org/2000/svg" xmlns:xlink="http://www.w3.org/1999/xlink" x="0px" y="0px"
	 width="65px" height="65px" viewBox="0 0 65 65" enable-background="new 0 0 65 65" xml:space="preserve">
<g>
	<polygon fill="#FFFFFF" points="28.28,40.347 52.112,16 49.917,13.805 25.57,37.637 	"/>
	<path fill="#FFFFFF" d="M33.995,42.106c-0.429,0.047-0.58,0.263-1.519,0.054c-1.248-0.186-1.913-1.157-2.056-2.332l-2.131,2.177
		l-4.379-4.376l4.749-4.651c-0.442-0.703-0.726-1.875-0.51-3.819c0.075-0.662,0.382-2.289-2.24-1.191
		c-2.621,1.097-4.91,4.338-5.673,7.103c-0.762,2.764-2.716,3.193-4.193,3.336c-4.75,0.46-10.054,2.573-11.322,7.576
		c-1.049,4.144,0.455,8.544,3.504,11.49c5.432,5.248,14.501,6.177,17.924-1.906c1.342-3.172,0.235-8.383,4.098-10.01
		c1.811-0.763,2.811-1.097,4.002-2.098C35.441,42.458,34.425,42.059,33.995,42.106z M18.272,58.713c-0.425,0.425-1.114,0.425-1.54,0
		c-0.425-0.426-0.425-1.114,0-1.539c0.425-0.425,1.114-0.425,1.54,0C18.697,57.599,18.697,58.288,18.272,58.713z M18.272,55.291
		c-0.425,0.426-1.114,0.426-1.54,0.001c-0.425-0.425-0.425-1.114,0-1.539c0.425-0.425,1.114-0.425,1.54,0
		C18.697,54.178,18.697,54.866,18.272,55.291z M14.733,46.204l1.921-1.92l5.032,5.032l-1.922,1.921L14.733,46.204z M22.035,58.782
		c-0.425,0.425-1.114,0.425-1.539,0c-0.426-0.425-0.426-1.113,0-1.54c0.424-0.425,1.114-0.425,1.539,0
		C22.46,57.668,22.46,58.357,22.035,58.782z M22.035,55.361c-0.425,0.425-1.115,0.425-1.539,0c-0.426-0.425-0.426-1.114,0-1.54
		c0.424-0.424,1.114-0.424,1.539,0.001S22.46,54.937,22.035,55.361z M24.034,46.969l-5.031-5.033l1.92-1.921l5.032,5.033
		L24.034,46.969z"/>
	<path fill="#FFFFFF" d="M60.918,9.847l-0.342-0.341l-0.422,0.422l0.341,0.34c-0.076,0.386,0.157,0.95,0.626,1.418l1.215-1.213
		C61.867,10.004,61.303,9.771,60.918,9.847z"/>
	<path fill="#FFFFFF" d="M58.236,12.527l-0.341-0.34l-0.422,0.419l0.342,0.342c-0.078,0.386,0.157,0.949,0.626,1.419l1.214-1.214
		C59.188,12.685,58.622,12.451,58.236,12.527z"/>
	<path fill="#FFFFFF" d="M55.557,15.209l-0.342-0.342l-0.421,0.421l0.341,0.342c-0.077,0.385,0.157,0.949,0.627,1.417l1.214-1.213
		C56.506,15.365,55.941,15.132,55.557,15.209z"/>
	<path fill="#FFFFFF" d="M56.068,4.999l0.343,0.342l-0.422,0.42l-0.342-0.34c-0.386,0.076-0.949-0.159-1.418-0.626l1.215-1.214
		C55.912,4.05,56.146,4.614,56.068,4.999z"/>
	<path fill="#FFFFFF" d="M53.389,7.68l0.341,0.341l-0.421,0.422l-0.342-0.342c-0.385,0.078-0.949-0.157-1.417-0.626l1.213-1.213
		C53.232,6.73,53.466,7.295,53.389,7.68z"/>
	<path fill="#FFFFFF" d="M50.708,10.36l0.342,0.342l-0.421,0.421l-0.342-0.342c-0.386,0.078-0.949-0.158-1.418-0.626l1.214-1.214
		C50.552,9.41,50.786,9.975,50.708,10.36z"/>
	<path fill="#FFFFFF" d="M58.6,5.61l1.707,1.706c0.38,0.381,0.376,1.003-0.011,1.388l-6.44,6.442l-3.085-3.085l6.441-6.44
		C57.596,5.234,58.22,5.229,58.6,5.61z"/>
</g>
</svg>
