<?xml version="1.0" encoding="utf-8"?>
<!-- Generator: Adobe Illustrator 16.0.1, SVG Export Plug-In . SVG Version: 6.00 Build 0)  -->
<!DOCTYPE svg PUBLIC "-//W3C//DTD SVG 1.1//EN" "http://www.w3.org/Graphics/SVG/1.1/DTD/svg11.dtd">
<svg version="1.1" id="Layer_1" xmlns="http://www.w3.org/2000/svg" xmlns:xlink="http://www.w3.org/1999/xlink" x="0px" y="0px"
	 width="65px" height="65px" viewBox="0 0 65 65" enable-background="new 0 0 65 65" xml:space="preserve">
<g>
	<path fill="#FFFFFF" d="M61.701,8.125c-0.088-0.089-0.219-0.119-0.336-0.08l-13.566,4.468c-0.289,0.095-0.471,0.382-0.432,0.684
		l0.323,2.611c0.015,0.11-0.024,0.222-0.104,0.301L34.658,29.037c-1.013,0.238-2.236-0.119-3.25-1.411
		c-1.314-1.681-1.377-4.488,1.09-7.506c0.287-0.354,0.264-0.869-0.06-1.192l-0.239-0.238c-0.188-0.188-0.451-0.282-0.715-0.257
		c-2.219,0.216-3.854,1.839-5.016,5.211c-1.188,3.442-2.504,5.725-5.094,8.03c-3.878,3.454-10.382,3.798-14.029,8.418
		c-4.239,5.369-2.379,11.123,3.084,16.483c5.186,5.331,13.121,8.525,18.711,2.936c4.298-4.298,2.227-9.403,4.58-11.691
		c3.226-3.139,7.188-3.501,9.335-6.102c0.302-0.364,0.418-0.851,0.315-1.311l-0.004-0.02c-0.1-0.446-0.393-0.825-0.801-1.033
		c-0.407-0.208-0.887-0.224-1.307-0.042c-1.562,0.674-2.979,1.688-4.504,0.717c-1.971-1.252-0.99-3.235-0.047-4.969
		c0.359-0.657,0.808-1.253,1.337-1.782l14.08-14.08c0.063-0.062,0.145-0.099,0.231-0.105l2.469-0.17
		c0.217-0.014,0.419-0.116,0.559-0.281l7.533-8.873c0.111-0.131,0.103-0.324-0.02-0.447L61.701,8.125z M29.293,43.268
		c-2.572,2.505-2.99,5.611-3.296,7.881c-0.286,2.121-0.476,3.004-1.345,3.873c-0.73,0.731-1.663,1.352-3.52,0.948
		c-1.898-0.414-4.078-1.743-5.982-3.647l-0.275-0.278l-0.165-0.163c-4.798-4.798-3.228-6.787-2.382-7.855
		c1.044-1.324,3.062-2.169,5.4-3.147c2.526-1.058,5.391-2.256,7.868-4.465c0.514-0.458,0.997-0.92,1.452-1.394
		c0.283-0.294,0.624-0.509,0.992-0.638c0.416-0.147,0.881-0.053,1.207,0.245s0.465,0.75,0.357,1.179
		c-0.527,2.122-0.352,3.874,0.177,5.298C30.063,41.857,29.872,42.707,29.293,43.268z"/>
	<circle fill="#FFFFFF" cx="48.795" cy="9.135" r="1.538"/>
	<circle fill="#FFFFFF" cx="53.384" cy="7.47" r="1.538"/>
	<circle fill="#FFFFFF" cx="57.973" cy="5.804" r="1.539"/>
	<path fill="#FFFFFF" d="M16.982,44.603c-0.056-0.058-0.135-0.083-0.215-0.074c-0.078,0.01-0.148,0.056-0.188,0.124l-1.364,2.293
		c-0.06,0.102-0.044,0.23,0.04,0.313l0.449,0.45c0.068,0.067,0.093,0.167,0.064,0.26l-0.513,1.606
		c-0.028,0.092-0.005,0.192,0.063,0.261l2.295,2.295c0.068,0.068,0.168,0.093,0.261,0.062l1.606-0.512
		c0.091-0.029,0.192-0.004,0.26,0.062l0.45,0.451c0.083,0.082,0.212,0.099,0.312,0.039l2.294-1.363
		c0.068-0.04,0.113-0.11,0.123-0.189c0.01-0.078-0.016-0.157-0.073-0.213L16.982,44.603z"/>
</g>
</svg>
