<?xml version="1.0" encoding="utf-8"?>
<!-- Generator: Adobe Illustrator 16.0.1, SVG Export Plug-In . SVG Version: 6.00 Build 0)  -->
<!DOCTYPE svg PUBLIC "-//W3C//DTD SVG 1.1//EN" "http://www.w3.org/Graphics/SVG/1.1/DTD/svg11.dtd">
<svg version="1.1" id="Layer_1" xmlns="http://www.w3.org/2000/svg" xmlns:xlink="http://www.w3.org/1999/xlink" x="0px" y="0px"
	 width="65px" height="65px" viewBox="0 0 65 65" enable-background="new 0 0 65 65" xml:space="preserve">
<path fill="#FFFFFF" d="M53.774,16.904l-4.596-6.208l-0.971-0.579C28.767,21.985,6.017,40.606,6.017,40.606l0.126,1.475l3.949,6.596
	L53.774,16.904z"/>
<path fill="#FFFFFF" d="M54.679,18.132l1.532-0.701l-5.808-7.345l2.913-2.136l7.313,7.125l2.752,4.106L9.437,58.323l-3.334-3.888
	l-4.496-9.128l3.375-2.397l4.876,8.34l1.052-1.211L54.679,18.132z M30.053,37.745l-2.036,1.471l1.776,2.452l2.033-1.47
	L30.053,37.745z M33.127,35.519l-2.036,1.474l1.776,2.451l2.037-1.471L33.127,35.519z M36.2,33.293l-2.037,1.474l1.778,2.453
	l2.036-1.474L36.2,33.293z M39.274,31.066l-2.035,1.474l1.775,2.455l2.036-1.473L39.274,31.066z M42.351,28.841l-2.038,1.475
	l1.779,2.453l2.032-1.474L42.351,28.841z M45.425,26.618l-2.038,1.471l1.779,2.455l2.035-1.474L45.425,26.618z M48.499,24.39
	l-2.037,1.474l1.775,2.454l2.036-1.471L48.499,24.39z M51.571,22.166l-2.036,1.473l1.776,2.453l2.034-1.471L51.571,22.166z
	 M54.647,19.941l-2.038,1.474l1.779,2.453l2.032-1.474L54.647,19.941z M26.979,39.971l-2.037,1.472l1.776,2.453l2.035-1.474
	L26.979,39.971z M23.906,42.193l-2.038,1.475l1.778,2.454l2.034-1.476L23.906,42.193z M20.83,44.419l-2.035,1.474l1.774,2.455
	l2.034-1.474L20.83,44.419z M17.756,46.645l-2.037,1.476l1.775,2.452l2.038-1.474L17.756,46.645z M14.682,48.87l-2.037,1.474
	l1.775,2.452l2.039-1.471L14.682,48.87z"/>
</svg>
