<?xml version="1.0" encoding="utf-8"?>
<!-- Generator: Adobe Illustrator 16.0.1, SVG Export Plug-In . SVG Version: 6.00 Build 0)  -->
<!DOCTYPE svg PUBLIC "-//W3C//DTD SVG 1.1//EN" "http://www.w3.org/Graphics/SVG/1.1/DTD/svg11.dtd">
<svg version="1.1" id="Layer_1" xmlns="http://www.w3.org/2000/svg" xmlns:xlink="http://www.w3.org/1999/xlink" x="0px" y="0px"
	 width="65px" height="65px" viewBox="0 0 65 65" enable-background="new 0 0 65 65" xml:space="preserve">
<path fill="#FFFFFF" d="M52.887,12.114c-5.628-5.628-12.424-8.447-20.385-8.447c-7.964,0-14.761,2.819-20.389,8.447
	c-5.627,5.628-8.445,12.423-8.445,20.387c0,7.962,2.818,14.757,8.445,20.385c5.628,5.629,12.425,8.448,20.389,8.448
	c7.961,0,14.757-2.819,20.385-8.448c5.627-5.628,8.446-12.423,8.446-20.385C61.333,24.538,58.514,17.742,52.887,12.114z
	 M37.067,11.637l1.951,16.261l1.175,2.854c-0.884,0.979-1.842,0.993-2.884,0.076l0.465-2.851l-1.962-16.341H37.067z M31.937,30.465
	V11.637h1.128v18.828l0.795,2.957c-0.999,0.918-1.888,0.887-2.815-0.08L31.937,30.465z M27.575,11.637h1.255l-1.951,16.25
	l0.465,2.842c-1.043,0.929-2,0.898-2.882-0.07l1.172-2.842L27.575,11.637z M15.549,25.417c-1.231,0.794-2.173,0.662-2.838-0.389
	l1.795-2.677l3.772-10.714h1.301l-3.842,10.917L15.549,25.417z M18.565,28.395l1.476-2.782l3.203-13.976h1.278l-3.234,14.119
	l0.145,2.896C20.301,29.507,19.345,29.403,18.565,28.395z M38.902,53.29c-1.835,1.839-4.062,2.758-6.666,2.758
	c-2.604,0-4.827-0.919-6.666-2.758c-1.837-1.839-2.757-4.062-2.757-6.665c0-2.605,0.92-4.828,2.757-6.666
	c1.839-1.839,4.061-2.758,6.666-2.758c2.603,0,4.831,0.919,6.666,2.758c1.839,1.838,2.758,4.061,2.758,6.666
	C41.66,49.229,40.741,51.451,38.902,53.29z M43.223,28.66l0.142-2.862l-3.242-14.161H41.4l3.209,14.017l1.479,2.793
	C45.307,29.468,44.35,29.516,43.223,28.66z M49.1,26.297h0.004l-0.189-3.292l-3.857-11.369h1.306l3.782,10.725l1.797,3.131
	C51.275,26.553,50.334,26.297,49.1,26.297z"/>
</svg>
