<?xml version="1.0" encoding="utf-8"?>
<!-- Generator: Adobe Illustrator 16.0.1, SVG Export Plug-In . SVG Version: 6.00 Build 0)  -->
<!DOCTYPE svg PUBLIC "-//W3C//DTD SVG 1.1//EN" "http://www.w3.org/Graphics/SVG/1.1/DTD/svg11.dtd">
<svg version="1.1" id="Layer_1" xmlns="http://www.w3.org/2000/svg" xmlns:xlink="http://www.w3.org/1999/xlink" x="0px" y="0px"
	 width="65px" height="65px" viewBox="0 0 65 65" enable-background="new 0 0 65 65" xml:space="preserve">
<g>
	<path fill="#FFFFFF" d="M60.979,59.725c0.078,0.074,0.17,0.074,0.25-0.003l1.483-1.505c0.19-0.189,0.308-0.543,0.308-0.924V12.697
		c0-0.379-0.117-0.734-0.308-0.926l-1.483-1.503c-0.08-0.077-0.172-0.077-0.25-0.001c-0.076,0.078-0.123,0.218-0.123,0.371v48.716
		C60.855,59.506,60.9,59.645,60.979,59.725z"/>
</g>
<g>
	<circle fill="#FFFFFF" cx="37.829" cy="13.459" r="2.004"/>
	<circle fill="#FFFFFF" cx="41.954" cy="9.378" r="2.004"/>
	<circle fill="#FFFFFF" cx="49.952" cy="24.056" r="2.005"/>
	<circle fill="#FFFFFF" cx="54.077" cy="19.975" r="2.004"/>
	<path fill="#FFFFFF" d="M51.061,5.761L23.323,30.925l-20.514,16.3l14.674,13.422l14.616-21.075l25.395-28.369L51.061,5.761z
		 M17.045,53.866l-7.886-8.298l2.323-2.208l7.886,8.298L17.045,53.866z"/>
</g>
<rect x="33.942" y="15.999" transform="matrix(-0.717 0.6971 -0.6971 -0.717 72.7013 7.2065)" fill="#FFFFFF" width="1.892" height="4.726"/>
<rect x="31.104" y="18.836" transform="matrix(-0.7171 0.697 -0.697 -0.7171 69.8077 14.0629)" fill="#FFFFFF" width="1.891" height="4.725"/>
<rect x="28.269" y="21.671" transform="matrix(-0.7172 0.6968 -0.6968 -0.7172 66.9157 20.9122)" fill="#FFFFFF" width="1.891" height="4.725"/>
<rect x="25.434" y="24.506" transform="matrix(-0.7174 0.6967 -0.6967 -0.7174 64.0232 27.7642)" fill="#FFFFFF" width="1.891" height="4.725"/>
</svg>
