<?xml version="1.0" encoding="utf-8"?>
<!-- Generator: Adobe Illustrator 16.0.1, SVG Export Plug-In . SVG Version: 6.00 Build 0)  -->
<!DOCTYPE svg PUBLIC "-//W3C//DTD SVG 1.1//EN" "http://www.w3.org/Graphics/SVG/1.1/DTD/svg11.dtd">
<svg version="1.1" id="Layer_1" xmlns="http://www.w3.org/2000/svg" xmlns:xlink="http://www.w3.org/1999/xlink" x="0px" y="0px"
	 width="65px" height="65px" viewBox="0 0 65 65" enable-background="new 0 0 65 65" xml:space="preserve">
<g>
	<path fill="#FFFFFF" d="M20.713,36.252c-2.35,4.188-4.435,6.484-4.676,8.048c-0.238,1.563,2.143,2.149,3.271,0.556
		c0,0,26.523-32.534,29.59-37.139c1.016-1.529,6.206,2.135,9.482,6.159c-0.87-0.109-1.907,0.208-2.779,0.929
		c-0.9,0.749-1.408,1.751-1.432,2.65c-1.374-1.418-3.035-2.51-4.072-1.043c-0.455,0.643-2.012,2.847-4.153,5.874
		c-0.011-0.009-0.024-0.02-0.037-0.029c-1.731-1.228-4.229-0.677-5.583,1.229c-1.348,1.906-1.041,4.448,0.692,5.675
		c0.015,0.012,0.032,0.02,0.049,0.031c-0.46,0.651-0.927,1.312-1.398,1.976c-0.017-0.011-0.03-0.024-0.047-0.036
		c-1.732-1.228-4.232-0.678-5.583,1.229c-1.354,1.907-1.043,4.448,0.691,5.677c0.021,0.012,0.037,0.022,0.06,0.037
		c-0.472,0.666-0.938,1.326-1.4,1.979c-0.021-0.016-0.034-0.031-0.056-0.045c-1.734-1.229-4.234-0.678-5.584,1.229
		c-1.354,1.906-1.043,4.447,0.69,5.676c0.024,0.016,0.051,0.03,0.069,0.045c-2.656,3.766-4.463,6.319-4.463,6.319
		c-3.536,4.991-9.881,6.573-16.225,2.079S1.277,46.09,4.204,39.586c0.661-1.467,1.012-2.786,1.181-3.909l17.458-8.219
		C23.779,30.314,22.859,32.422,20.713,36.252z"/>
	<path fill="#FFFFFF" d="M23.031,25.769L5,34.254c-0.982,0.46-2.209-0.09-2.746-1.23c-0.119-0.25-0.184-0.505-0.221-0.761
		c-0.117-0.906,0.261-1.776,1.024-2.138l18.03-8.484c0.9-0.421,1.991,0.005,2.584,0.948c0.061,0.091,0.117,0.18,0.165,0.282
		C24.373,24.008,24.014,25.307,23.031,25.769z"/>
	<path fill="#FFFFFF" d="M58.779,23.199l-3.098-3.732c-0.738-0.894-0.34-2.448,0.896-3.471c1.234-1.025,2.837-1.13,3.576-0.236
		c0,0,3.434,6.171,2.205,7.2c-0.002,0.002,0,0.003-0.004,0.004C62.275,23.028,59.473,24.034,58.779,23.199z"/>
	
		<ellipse transform="matrix(-0.8155 -0.5787 0.5787 -0.8155 64.6077 72.5971)" fill="#FFFFFF" cx="43.874" cy="26.002" rx="2.015" ry="2.772"/>
	<path fill="#FFFFFF" d="M35.943,33.713c0.883-1.249,2.338-1.74,3.247-1.097c0.905,0.644,0.925,2.178,0.04,3.425
		c-0.883,1.25-2.338,1.744-3.246,1.099C35.078,36.498,35.059,34.961,35.943,33.713z"/>
	<path fill="#FFFFFF" d="M29.653,42.588c0.884-1.248,2.339-1.74,3.245-1.096c0.909,0.643,0.928,2.18,0.045,3.427
		c-0.89,1.249-2.342,1.741-3.247,1.097C28.787,45.372,28.766,43.838,29.653,42.588z"/>
</g>
</svg>
