<?xml version="1.0" encoding="utf-8"?>
<!-- Generator: Adobe Illustrator 16.0.1, SVG Export Plug-In . SVG Version: 6.00 Build 0)  -->
<!DOCTYPE svg PUBLIC "-//W3C//DTD SVG 1.1//EN" "http://www.w3.org/Graphics/SVG/1.1/DTD/svg11.dtd">
<svg version="1.1" id="Layer_1" xmlns="http://www.w3.org/2000/svg" xmlns:xlink="http://www.w3.org/1999/xlink" x="0px" y="0px"
	 width="65px" height="65px" viewBox="0 0 65 65" enable-background="new 0 0 65 65" xml:space="preserve">
<path fill="#FFFFFF" d="M60.855,13.862c-1.439-3.021-2.605-4.747-2.922-4.521c-0.166,0.116-0.067,0.741,0.271,1.735
	c-0.115,0.376-0.825,1.414-3.199,3.453c0,0-0.035-0.001-0.099,0.006c-0.083,0.005-0.164,0.021-0.247,0.037
	c-0.02,0.005-0.038,0.009-0.059,0.012c-0.076,0.018-0.148,0.041-0.221,0.065c-0.363,0.122-0.812,0.368-1.169,0.864
	c-0.04,0.053-0.071,0.108-0.104,0.165c-0.014,0.019-0.024,0.036-0.033,0.055c-0.106,0.172-0.188,0.354-0.237,0.538
	c-0.004,0.011-0.01,0.021-0.013,0.034c-0.021,0.063-0.547,0.419-0.805,0.618c0,0-0.119-0.032-0.31-0.041
	c-0.028-0.003-0.06-0.002-0.09-0.004c-0.042,0.001-0.091,0.002-0.14,0.005c-0.394,0.021-0.816,0.159-1.203,0.441
	c-0.479,0.349-0.801,0.833-0.936,1.322c-0.027,0.104-0.055,0.21-0.07,0.323c-0.01,0.062-0.609,0.428-0.609,0.428
	c-0.068-0.026-0.135-0.05-0.198-0.066c-0.009-0.002-0.014-0.004-0.019-0.007c-0.086-0.021-0.168-0.036-0.246-0.04
	c-0.473-0.055-1.006,0.082-1.486,0.432c-0.156,0.114-0.293,0.246-0.415,0.388c-0.032,0.036-0.065,0.073-0.093,0.108
	c-0.032,0.042-0.068,0.084-0.098,0.13c-0.049,0.065-0.086,0.132-0.125,0.198c-0.094,0.174-0.164,0.353-0.209,0.533
	c-0.018,0.062-0.027,0.123-0.037,0.179c-0.002,0.022-0.01,0.047-0.012,0.069c-0.027,0.187-0.021,0.305-0.021,0.305
	c-1.017,0.753-2.384,1.723-3.843,2.699c-1.895,1.273-7.258,5.13-12.335,8.866l-3.712,2.763c-1.961,1.471-3.74,2.825-5.052,3.869
	c-0.042-0.318,0.05-0.784,0.294-1.203c0.602-1.033,0.414-1.199,0.414-1.199s-2.273,1.426-1.904,2.709l-0.287,0.915
	c-3.774,3.23-2.451,2.075-3.95,3.184c-1.499,1.104-2.095,2.238-2.095,2.238l-7.315,5.168c-0.226-0.124-0.48-0.128-0.694,0.024
	l-3.486,2.463c-0.377,0.269-0.482,0.903-0.234,1.425c0.248,0.52,0.752,0.727,1.129,0.457l3.488-2.465
	c0.215-0.153,0.337-0.426,0.36-0.725c0,0,3.019-1.975,3.051-1.902C9.554,50.96,9.583,51,9.617,51.033
	c0.095,0.094,0.229,0.124,0.357,0.084c0.041-0.012,0.238-0.098,0.238-0.098l4.901-1.664c0,0,0.736,0.826,1.896,0.166
	c1.161-0.661,1.372-1.187,5.624-3.715c4.311-2.564,19.525-13.13,22.876-15.631c2.509-1.87,2.484-1.92,5.798-4.037
	c8.387-5.93,10.657-5.722,11.402-5.726c0.605,0.977,1.048,1.46,1.223,1.335C64.25,21.525,62.295,16.882,60.855,13.862z
	 M34.887,30.368c0.885-0.599,1.929-0.603,2.33-0.009c0.402,0.594,0.01,1.561-0.875,2.159c-0.887,0.599-1.93,0.603-2.33,0.009
	C33.609,31.934,34.002,30.967,34.887,30.368z M30.588,33.232c0.885-0.599,1.928-0.602,2.329-0.008
	c0.401,0.594,0.01,1.56-0.875,2.158c-0.885,0.598-1.928,0.602-2.329,0.008C29.312,34.797,29.704,33.83,30.588,33.232z
	 M41.489,30.482l-14.074,9.38c-0.092,0.061-0.195,0.09-0.297,0.09c-0.173,0-0.344-0.084-0.447-0.239
	c-0.165-0.247-0.098-0.58,0.149-0.745l0.419-0.279c-0.472,0.031-0.885-0.108-1.104-0.433c-0.402-0.596-0.01-1.562,0.875-2.161
	s1.929-0.603,2.331-0.007c0.225,0.332,0.194,0.78-0.025,1.217l11.579-7.716c0.249-0.166,0.582-0.097,0.745,0.149
	C41.803,29.984,41.736,30.317,41.489,30.482z M49.226,23.209c-0.886,0.599-1.929,0.603-2.33,0.008
	c-0.401-0.594-0.009-1.561,0.876-2.159c0.885-0.599,1.929-0.603,2.33-0.009S50.111,22.61,49.226,23.209z M52.809,20.345
	c-0.885,0.599-1.928,0.602-2.33,0.008s-0.01-1.561,0.875-2.16c0.885-0.599,1.929-0.603,2.33-0.008
	C54.086,18.779,53.694,19.747,52.809,20.345z M57.102,17.485c-0.886,0.599-1.93,0.603-2.33,0.009
	c-0.402-0.594-0.01-1.56,0.875-2.159c0.885-0.599,1.928-0.603,2.33-0.009C58.378,15.919,57.986,16.886,57.102,17.485z"/>
</svg>
