<?xml version="1.0" encoding="utf-8"?>
<!-- Generator: Adobe Illustrator 16.0.1, SVG Export Plug-In . SVG Version: 6.00 Build 0)  -->
<!DOCTYPE svg PUBLIC "-//W3C//DTD SVG 1.1//EN" "http://www.w3.org/Graphics/SVG/1.1/DTD/svg11.dtd">
<svg version="1.1" id="Layer_1" xmlns="http://www.w3.org/2000/svg" xmlns:xlink="http://www.w3.org/1999/xlink" x="0px" y="0px"
	 width="65px" height="65px" viewBox="0 0 65 65" enable-background="new 0 0 65 65" xml:space="preserve">
<path fill="#FFFFFF" d="M61.792,18.525c-0.5-1.812-1.176-3.669-2.199-5.224c-2.11-3.201-4.766-5.873-8.571-7.139
	C48.9,5.455,46.986,6.701,47.13,8.858c0.046,0.689,0.083,1.468,0.416,2.032c1.156,1.952,0.083,3.538-1.034,4.761
	c-2.789,3.054-5.789,5.922-8.777,8.786c-3.027,2.9-6.183,5.667-9.211,8.564c-6.295,6.022-12.585,12.051-18.78,18.174
	c-1.425,1.408-3.734,2.196-3.817,4.724c-0.001,0.055-0.115,0.108-0.178,0.158C4.586,57,3.424,57.941,2.434,58.743
	c0.096,0.501,0.189,0.999,0.285,1.497c0.081-0.016,0.16-0.031,0.238-0.045c0.686-0.803,1.321-1.659,2.076-2.392
	c0.449-0.438,1.166-1.055,1.619-0.954c1.284,0.288,1.992-0.473,2.783-1.119c4.296-3.5,8.542-7.062,12.867-10.525
	c3.18-2.543,6.471-4.944,9.685-7.447c2.759-2.15,5.496-4.332,8.208-6.54c2.179-1.771,4.265-3.658,6.469-5.396
	c2.146-1.694,4.395-3.257,6.578-4.906c0.14-0.107,0.207-0.525,0.115-0.692c-0.488-0.886-1.039-1.736-1.564-2.6
	c0.506,0.287,0.958,0.602,1.258,1.024c1.262,1.775,3.121,2.652,5.104,3.098C60.832,22.347,62.59,21.421,61.792,18.525z
	 M48.725,21.575l-4.42,4.059c-0.609,0.562-1.56,0.521-2.119-0.09c-0.561-0.609-0.521-1.559,0.09-2.119l4.418-4.059
	c0.611-0.562,1.56-0.521,2.119,0.09C49.374,20.065,49.335,21.015,48.725,21.575z"/>
</svg>
