<?xml version="1.0" encoding="utf-8"?>
<!-- Generator: Adobe Illustrator 16.0.1, SVG Export Plug-In . SVG Version: 6.00 Build 0)  -->
<!DOCTYPE svg PUBLIC "-//W3C//DTD SVG 1.1//EN" "http://www.w3.org/Graphics/SVG/1.1/DTD/svg11.dtd">
<svg version="1.1" id="Layer_1" xmlns="http://www.w3.org/2000/svg" xmlns:xlink="http://www.w3.org/1999/xlink" x="0px" y="0px"
	 width="65px" height="65px" viewBox="0 0 65 65" enable-background="new 0 0 65 65" xml:space="preserve">
<path fill="#FFFFFF" d="M57.848,5.644l-3.314-2.866c-0.08-0.07-0.202-0.062-0.27,0.021l-2.068,2.458l-0.776-0.672
	c0.959-1.344-0.624-1.375-1.229-0.653c-0.604,0.721-0.324,2.296,0.832,1.126L51.8,5.729l-2.13,2.529l-0.777-0.671
	c0.957-1.347-0.621-1.376-1.228-0.656c-0.606,0.721-0.327,2.298,0.831,1.127l0.777,0.672l-2.127,2.53l-0.775-0.672
	c0.956-1.346-0.625-1.376-1.229-0.656c-0.606,0.721-0.328,2.297,0.832,1.126l0.776,0.672l-2.703,3.214l-0.702-0.608
	c0.364-0.673-0.629-0.845-0.941-0.474c-0.313,0.372,0.011,1.34,0.609,0.871l0.702,0.606l-2.233,2.657l-0.692-0.599
	c0.706-1.012-0.49-1.031-0.952-0.483c-0.461,0.547-0.252,1.745,0.621,0.879l0.691,0.598l-2.233,2.655l-0.701-0.606
	c0.362-0.674-0.631-0.846-0.944-0.475c-0.312,0.372,0.012,1.341,0.611,0.871l0.7,0.607L36.354,24.1l-0.694-0.599
	c0.704-1.011-0.492-1.03-0.953-0.482c-0.462,0.547-0.252,1.744,0.62,0.879l0.691,0.599l-2.231,2.656l-0.702-0.607
	c0.361-0.674-0.632-0.845-0.944-0.474s0.012,1.34,0.611,0.87l0.702,0.607l-2.233,2.657l-0.691-0.599
	c0.705-1.013-0.493-1.03-0.954-0.483c-0.461,0.548-0.253,1.744,0.62,0.879l0.693,0.598l-2.235,2.657l-0.702-0.607
	c0.362-0.673-0.63-0.846-0.942-0.473c-0.311,0.371,0.012,1.34,0.61,0.868l0.703,0.609l-2.233,2.655l-0.693-0.599
	c0.706-1.011-0.492-1.031-0.953-0.483c-0.46,0.549-0.252,1.746,0.621,0.879l0.691,0.599l-1.586,1.89
	c-3.021,3.592-4.243,3.366-8.142,2.285c-5.205-1.445-10.472,1.371-10.548,7.508c-0.047,3.784,1.838,6.723,5.359,9.77
	c3.521,3.046,6.682,4.47,10.355,3.824c5.962-1.045,7.871-6.766,5.643-11.75c-1.67-3.736-2.082-4.924,0.939-8.517
	C39.678,27.557,45.966,20.077,57.869,5.918C57.939,5.837,57.928,5.713,57.848,5.644z M54.981,6.458L17.242,51.643l2.649,2.094
	l-2.173,2.75l-6.185-4.889l2.173-2.75l2.762,2.183L54.226,5.826c0.173-0.209,0.483-0.238,0.694-0.062
	C55.128,5.938,55.156,6.249,54.981,6.458z"/>
</svg>
