<?xml version="1.0" encoding="utf-8"?>
<!-- Generator: Adobe Illustrator 16.0.1, SVG Export Plug-In . SVG Version: 6.00 Build 0)  -->
<!DOCTYPE svg PUBLIC "-//W3C//DTD SVG 1.1//EN" "http://www.w3.org/Graphics/SVG/1.1/DTD/svg11.dtd">
<svg version="1.1" id="Layer_1" xmlns="http://www.w3.org/2000/svg" xmlns:xlink="http://www.w3.org/1999/xlink" x="0px" y="0px"
	 width="65px" height="65px" viewBox="0 0 65 65" enable-background="new 0 0 65 65" xml:space="preserve">
<g>
	<path fill="#FFFFFF" d="M14.369,45.51c-1.624,1.937-1.396,4.825,0.52,6.484c1.918,1.656,4.805,1.462,6.486-0.421
		C20.264,50.662,15.525,46.568,14.369,45.51z"/>
	<path fill="#FFFFFF" d="M3.303,29.009c0.947,2.95,7.696,10.366,16.691,18.135c8.777,7.58,16.91,13.097,20.139,13.83
		c0.945,0.327,2.002,0.175,2.82-0.422c0.19-0.137,0.373-0.29,0.53-0.473c0.544-0.631,0.783-1.417,0.745-2.188
		c-0.029-0.161-0.05-0.324-0.074-0.487c-0.953-6.591,0.822-12.776,5.251-17.905l5.132-5.938l0.921-1.067
		c5.229-6.053,5.498-14.702,1.185-21.006l0.352-0.406l0.92-1.067c1.675-1.938,1.461-4.866-0.476-6.541
		c-1.939-1.674-4.867-1.459-6.541,0.479l-0.92,1.066l-0.437,0.505c-6.786-3.087-15.062-1.5-20.183,4.428l-0.92,1.064l-5.13,5.94
		c-4.429,5.128-10.291,7.784-16.953,7.799c-0.162,0-0.326,0.003-0.492,0c-0.766,0.072-1.509,0.423-2.053,1.054
		c-0.162,0.184-0.285,0.385-0.395,0.592C2.991,27.22,2.961,28.175,3.303,29.009z M55.647,8.058l-0.918,1.066l-0.02,0.023
		c-0.33-0.334-2.003-1.765-2.512-2.116l0.044-0.052l0.923-1.067c0.591-0.684,1.628-0.76,2.315-0.17
		C56.163,6.334,56.24,7.372,55.647,8.058z"/>
</g>
</svg>
