<?xml version="1.0" encoding="utf-8"?>
<!-- Generator: Adobe Illustrator 16.0.1, SVG Export Plug-In . SVG Version: 6.00 Build 0)  -->
<!DOCTYPE svg PUBLIC "-//W3C//DTD SVG 1.1//EN" "http://www.w3.org/Graphics/SVG/1.1/DTD/svg11.dtd">
<svg version="1.1" id="Layer_1" xmlns="http://www.w3.org/2000/svg" xmlns:xlink="http://www.w3.org/1999/xlink" x="0px" y="0px"
	 width="65px" height="65px" viewBox="0 0 65 65" enable-background="new 0 0 65 65" xml:space="preserve">
<g>
	<path fill="#FFFFFF" d="M50.568,7.8c-0.112,0.038-0.197,0.122-0.246,0.226c-4.969,11.153-9.843,13.804-14.751,16.84
		c-0.007,0.003-0.011,0.005-0.011,0.005l-3.282,1.939l-1.222-2.071l0.268-0.159c0.129-0.076,0.172-0.241,0.095-0.372l-0.788-1.334
		c-0.077-0.131-0.241-0.171-0.371-0.095l-0.562,0.332l-3.374,1.992c-0.129,0.077-0.171,0.24-0.095,0.371l0.788,1.334
		c0.078,0.131,0.242,0.173,0.372,0.097l0.459-0.271l1.224,2.071l1.21,2.05l-0.862,0.509c-0.129,0.076-0.295,0.035-0.372-0.095
		l-1.074-1.817l-1.105,0.653l-1.223-2.071l0.291-0.172c0.129-0.077,0.173-0.242,0.096-0.372l-0.788-1.335
		c-0.077-0.131-0.243-0.171-0.372-0.095l-0.584,0.345l-3.352,1.979c-0.13,0.076-0.172,0.239-0.095,0.37l0.789,1.334
		c0.077,0.131,0.242,0.173,0.37,0.097l0.438-0.258l1.223,2.071l1.211,2.049l-0.861,0.509c-0.13,0.077-0.294,0.035-0.371-0.095
		l-1.073-1.818l-1.107,0.654l-1.223-2.071l0.314-0.186c0.128-0.075,0.171-0.24,0.093-0.371l-0.788-1.334
		c-0.077-0.131-0.241-0.171-0.369-0.096l-0.608,0.359l-3.328,1.965c-0.128,0.076-0.175,0.241-0.098,0.372l0.789,1.334
		c0.077,0.131,0.245,0.171,0.372,0.096l0.415-0.244l1.224,2.07l1.209,2.051l-0.86,0.508c-0.129,0.076-0.295,0.035-0.372-0.094
		l-1.074-1.817l-1.115,0.657c-2.131,1.259-3.153,3.754-2.863,6.355l-7.616,4.497L5.35,46.883c-0.149-0.255-0.479-0.341-0.735-0.19
		l-2.397,1.416c-0.253,0.149-0.335,0.48-0.186,0.733l2.748,4.653l0.352,0.597c0.149,0.255,0.479,0.342,0.733,0.191l2.396-1.415
		c0.255-0.15,0.338-0.482,0.189-0.738l-0.217-0.367l-0.135-0.229l6.992-4.129l6.65-3.929l1.089-0.643l0.135,0.228l1.027,1.741
		l1.841,3.117l-1.082,0.639c-1.085,0.642-2.478,0.281-3.118-0.804l-0.683-1.157l-4.698,2.775l0.96,1.626
		c2.096,3.55,6.271,4.963,9.323,3.16l2.211-1.306l2.292,3.882c0.274,0.461,0.869,0.613,1.329,0.341L33.9,56.17
		c0.464-0.273,0.617-0.867,0.343-1.329l-2.292-3.881l2.202-1.301l2.292,3.883c0.272,0.461,0.869,0.612,1.33,0.34l1.535-0.907
		c0.461-0.271,0.614-0.866,0.343-1.327l-2.293-3.882l2.202-1.301l2.291,3.883c0.273,0.46,0.869,0.612,1.328,0.341l1.538-0.906
		c0.462-0.274,0.613-0.867,0.342-1.329l-2.293-3.882l3.276-1.935c3.057-1.806,3.833-6.144,1.736-9.693l-1.892-3.203
		c3.701-1.527,8.407-2.504,16.167-1.846c0.113,0.008,0.229-0.029,0.316-0.106c0.087-0.076,0.139-0.184,0.141-0.299
		c0.25-5.517-6.665-17.223-11.615-19.67C50.794,7.767,50.676,7.759,50.568,7.8z M29.038,46.026l-1.841-3.118l-1.163-1.969l0,0
		l2.201-1.299l0,0l1.162,1.968l1.841,3.117L29.038,46.026z M34.446,42.832l-1.841-3.118l-1.162-1.967l0,0l2.203-1.301l0,0
		l1.162,1.968l1.841,3.117L34.446,42.832z M42.745,35.285c0.642,1.085,0.282,2.48-0.802,3.119l-2.089,1.233l-3.004-5.086
		l2.089-1.233c1.084-0.639,2.479-0.28,3.118,0.803L42.745,35.285z"/>
</g>
</svg>
