<?xml version="1.0" encoding="utf-8"?>
<!-- Generator: Adobe Illustrator 16.0.1, SVG Export Plug-In . SVG Version: 6.00 Build 0)  -->
<!DOCTYPE svg PUBLIC "-//W3C//DTD SVG 1.1//EN" "http://www.w3.org/Graphics/SVG/1.1/DTD/svg11.dtd">
<svg version="1.1" id="Layer_1" xmlns="http://www.w3.org/2000/svg" xmlns:xlink="http://www.w3.org/1999/xlink" x="0px" y="0px"
	 width="65px" height="65px" viewBox="0 0 65 65" enable-background="new 0 0 65 65" xml:space="preserve">
<g>
	<path fill="#FFFFFF" d="M46.573,2.337c-0.988,0.021-1.148,2.141-1.312,3.116c-0.754,4.507-11.89,13.536-14.794,15.608
		c-0.838,0.579-1.639,1.131-2.412,1.666c1.423,0.608,3.78,3.594,5.166,5.478c2.183-0.884,4.425-1.125,6.901-0.28
		c7.78-3.981,13.331-5.761,16.604-4.771c0.96,0.291,2.59,0.961,3.095,0.092C61.082,21.073,49.569,2.272,46.573,2.337z"/>
	<path fill="#FFFFFF" d="M36.856,30.123l-0.021,0.012c-0.608-0.012-1.174,0.081-1.844,0.335c-1.254,0.476-2.673,0.014-3.402-1.112
		l-0.033-0.051l-0.146-0.226l-3.883-5.988l-0.252-0.389l-0.09-0.14c0.296-0.501,0.306-1.146-0.032-1.668
		c-0.476-0.734-1.456-0.943-2.189-0.467c-0.734,0.475-0.944,1.456-0.469,2.189c0.34,0.521,0.933,0.776,1.511,0.71l0.365,0.563
		C10.754,34.694,9.291,35.882,7.512,37.838c-2.621,2.87-3.697,6.077-3.081,9.932c1.01,6.227,8.482,14.973,18.216,10.408
		c4.074-1.912,9.277-5.284,9.277-5.284l5.856-3.796c2.903-1.882,6.395-4.343,7.377-7.807c0.408-1.408,0.398-3.056-0.228-4.775
		c-0.801-2.17-2.397-4.34-4.512-5.505C39.35,30.418,38.135,30.093,36.856,30.123z M13.472,50.167
		c-1.95-2.71-1.904-5.962,1.109-9.178c1.284-1.367,14.336-10.356,15.625-11.184l0.043,0.067c0.847,1.305,0.49,3.046-0.801,3.914
		c-2.138,1.438-4.999,3.396-8.983,6.025c-0.654,0.431-1.321,0.874-1.981,1.363c-0.656,0.493-1.317,1.024-1.924,1.671
		c-1.4,1.495-2.113,3.189-1.861,5.188c0.094,0.725,0.29,1.401,0.542,2.034c0.951,0.665,2.06,1.049,3.202,0.971
		c-3.124-4.698-0.375-6.677,3.373-9.107c1.24-0.804,12.164-7.675,13.596-8.057c0.556-0.157,1.114-0.235,1.695-0.15
		c0.312,0.046,0.617,0.148,0.91,0.29L22.219,44.256c-1.946,1.262-2.504,3.872-1.242,5.817l1.337,2.064
		C19.564,53.724,16.637,54.571,13.472,50.167z M41.077,38.966c-0.036,1.549-1.505,2.854-2.775,3.743
		c-0.928,0.655-8.788,5.252-13.636,8.065l-1.412-2.177c-0.448-0.69-0.25-1.617,0.441-2.064l16.371-10.612
		C40.713,36.905,41.103,38.044,41.077,38.966z"/>
	<circle fill="#FFFFFF" cx="25.501" cy="48.031" r="1.425"/>
	<circle fill="#FFFFFF" cx="28.461" cy="46.112" r="1.425"/>
	<circle fill="#FFFFFF" cx="31.421" cy="44.192" r="1.425"/>
	<circle fill="#FFFFFF" cx="34.382" cy="42.273" r="1.425"/>
</g>
</svg>
