<?xml version="1.0" encoding="utf-8"?>
<!-- Generator: Adobe Illustrator 16.0.1, SVG Export Plug-In . SVG Version: 6.00 Build 0)  -->
<!DOCTYPE svg PUBLIC "-//W3C//DTD SVG 1.1//EN" "http://www.w3.org/Graphics/SVG/1.1/DTD/svg11.dtd">
<svg version="1.1" id="Layer_1" xmlns="http://www.w3.org/2000/svg" xmlns:xlink="http://www.w3.org/1999/xlink" x="0px" y="0px"
	 width="65px" height="65px" viewBox="0 0 65 65" enable-background="new 0 0 65 65" xml:space="preserve">
<g>
	<g>
		<circle fill="#FFFFFF" cx="45.885" cy="12.172" r="1.021"/>
		<circle fill="#FFFFFF" cx="43.241" cy="14.814" r="1.02"/>
		<circle fill="#FFFFFF" cx="53.183" cy="19.458" r="1.021"/>
		<circle fill="#FFFFFF" cx="50.54" cy="22.097" r="1.02"/>
	</g>
	<path fill="#FFFFFF" d="M52.706,16.118l-3.627-3.622c-0.087-0.086-0.202-0.137-0.325-0.137s-0.239,0.051-0.326,0.137l-5.65,5.642
		l-0.164,1.281l-8.479,8.46c-1.392-0.985-3.184-1.776-5.074-1.368c-3.729,0.802-4.145,3.955-6.113,5.732
		c-3.887,3.511-7.129,1.708-10.713,6.015c-5.86,7.049,7.635,20.541,14.682,14.68c4.307-3.58,2.506-6.824,6.016-10.711
		c1.775-1.969,4.934-2.385,5.736-6.111c0.408-1.893-0.383-3.685-1.37-5.078l8.476-8.466l1.283-0.165l5.649-5.638
		c0.086-0.087,0.136-0.205,0.136-0.328C52.842,16.322,52.792,16.204,52.706,16.118z M24.413,46.162l-1.375,1.377
		c-0.056,0.055-0.13,0.082-0.207,0.082s-0.151-0.027-0.206-0.082l-4.988-4.99c-0.113-0.113-0.113-0.299,0-0.412l1.375-1.375
		c0.056-0.055,0.129-0.086,0.207-0.086s0.15,0.031,0.206,0.086l4.988,4.988C24.527,45.863,24.527,46.049,24.413,46.162z
		 M31.714,36.621c-0.104,0.486-0.341,0.947-0.72,1.326c-1.039,1.039-2.727,1.039-3.768,0c-1.039-1.041-1.039-2.73,0-3.768
		c0.379-0.379,0.842-0.617,1.327-0.721c0.854-0.182,1.779,0.057,2.44,0.721C31.658,34.841,31.896,35.768,31.714,36.621z"/>
</g>
</svg>
