<?xml version="1.0" encoding="utf-8"?>
<!-- Generator: Adobe Illustrator 16.0.1, SVG Export Plug-In . SVG Version: 6.00 Build 0)  -->
<!DOCTYPE svg PUBLIC "-//W3C//DTD SVG 1.1//EN" "http://www.w3.org/Graphics/SVG/1.1/DTD/svg11.dtd">
<svg version="1.1" id="Layer_1" xmlns="http://www.w3.org/2000/svg" xmlns:xlink="http://www.w3.org/1999/xlink" x="0px" y="0px"
	 width="65px" height="65px" viewBox="0 0 65 65" enable-background="new 0 0 65 65" xml:space="preserve">
<g>
	<path fill="#FFFFFF" d="M53.796,57.237c0.082,0.066,0.18,0.066,0.263-0.002l1.571-1.346c0.201-0.17,0.325-0.484,0.325-0.826v-43.07
		c0-0.339-0.124-0.656-0.325-0.828l-1.571-1.343c-0.083-0.069-0.181-0.069-0.263-0.002c-0.082,0.07-0.131,0.194-0.131,0.332v46.752
		C53.665,57.042,53.714,57.167,53.796,57.237z"/>
</g>
<g>
	<path fill="#FFFFFF" d="M27.888,50.884c0.953-1.301,1.597-2.551,2.133-3.687c-0.338-0.046-0.641-0.165-0.891-0.362
		c-1.135-0.902-0.736-3.109,0.891-4.93s3.866-2.565,5.002-1.664c0.035,0.029,0.071,0.061,0.104,0.092
		c0.79-0.627,1.663-1.256,2.648-1.99c3.004-2.234,1.625-5.987-1.288-9.003l5.09-6.745c0.804-0.028,1.385-0.107,2.327-1.145
		l0.775,0.616l-0.098,0.108c-0.283,0.316-0.289,0.748,0.052,1.02c0.341,0.271,0.791,0.19,1.073-0.126l0.684-0.765
		c0.283-0.317,0.291-0.751-0.05-1.021c-0.341-0.27-0.792-0.19-1.073,0.126l0.035-0.041l-0.938-0.745l1.557-1.742l0.938,0.745
		l-0.012,0.011c-0.283,0.316-0.289,0.75,0.052,1.021s0.794,0.19,1.076-0.125l0.683-0.765c0.283-0.318,0.291-0.75-0.051-1.021
		c-0.34-0.271-0.793-0.189-1.074,0.128l-0.053,0.055L46.7,18.307c0.688-0.945,0.676-2.442-0.287-3.206l-0.325-0.259
		c-0.962-0.764-2.528-0.52-3.399,0.279l-0.832-0.662l0.051-0.056c0.281-0.317,0.103-0.899-0.238-1.169
		c-0.342-0.271-0.98-0.339-1.264-0.022l-0.684,0.765c-0.283,0.316-0.104,0.897,0.238,1.17c0.341,0.27,0.98,0.338,1.264,0.021
		l0.009-0.012l0.563,0.447l-1.557,1.741l-0.562-0.446l-0.038,0.042c0.283-0.316,0.103-0.899-0.236-1.169
		c-0.343-0.271-0.981-0.34-1.265-0.023l-0.683,0.764c-0.282,0.317-0.103,0.899,0.237,1.169c0.342,0.271,0.979,0.341,1.263,0.024
		l0.097-0.109l0.828,0.657c-0.927,1.052-0.909,1.604-0.803,2.356l-6.179,5.864c-3.646-2.194-7.81-2.833-9.637,0.336
		c-0.599,1.041-1.11,1.959-1.632,2.799c0.039,0.026,0.075,0.055,0.111,0.083c1.136,0.902,0.736,3.108-0.89,4.929
		c-1.628,1.82-3.867,2.566-5.003,1.664c-0.25-0.197-0.426-0.459-0.529-0.764c-1.096,0.689-2.296,1.501-3.492,2.606
		c-6.197,5.737-0.519,10.33,2.415,12.66C17.177,53.118,22.941,57.614,27.888,50.884z M26.42,35.928
		c-0.178,0.146-0.409,0.215-0.65,0.194c-0.241-0.02-0.465-0.127-0.628-0.299c-0.206-0.217-0.281-0.504-0.218-0.768
		c-0.338,0.074-0.891,0.294-1.571,0.945c-1.121,1.072-1.975,2.469-2.941,3.146c-1.037,0.73-1.711,1.18-2.479,1.25
		c-0.764,0.069-1.259-0.09-1.611-0.519c-0.279-0.343-0.199-0.858,0.185-1.172c0.178-0.146,0.409-0.214,0.65-0.194
		c0.242,0.02,0.466,0.129,0.629,0.301c0.206,0.216,0.28,0.503,0.218,0.765c0.338-0.071,0.889-0.292,1.57-0.944
		c1.123-1.072,1.975-2.469,2.94-3.146c1.037-0.729,1.712-1.179,2.479-1.25c0.766-0.069,1.264,0.091,1.613,0.52
		C26.884,35.099,26.804,35.616,26.42,35.928z M25.304,47.084c-0.506-0.254-0.758-0.687-0.814-1.41
		c-0.058-0.724,0.3-1.425,0.885-2.515c0.546-1.012,1.861-2.041,2.791-3.266c0.565-0.743,0.703-1.293,0.722-1.621
		c-0.264,0.104-0.577,0.084-0.837-0.07c-0.211-0.123-0.358-0.312-0.421-0.533c-0.063-0.222-0.029-0.447,0.093-0.637
		c0.262-0.411,0.785-0.572,1.193-0.371c0.506,0.252,0.758,0.688,0.815,1.408c0.057,0.726-0.3,1.429-0.888,2.518
		c-0.544,1.012-1.858,2.039-2.789,3.264c-0.564,0.743-0.702,1.295-0.721,1.621c0.264-0.102,0.577-0.082,0.836,0.07
		c0.209,0.124,0.359,0.312,0.421,0.533c0.062,0.222,0.03,0.449-0.093,0.637C26.235,47.123,25.71,47.284,25.304,47.084z"/>
</g>
</svg>
