<?xml version="1.0" encoding="utf-8"?>
<!-- Generator: Adobe Illustrator 16.0.1, SVG Export Plug-In . SVG Version: 6.00 Build 0)  -->
<!DOCTYPE svg PUBLIC "-//W3C//DTD SVG 1.1//EN" "http://www.w3.org/Graphics/SVG/1.1/DTD/svg11.dtd">
<svg version="1.1" id="Layer_1" xmlns="http://www.w3.org/2000/svg" xmlns:xlink="http://www.w3.org/1999/xlink" x="0px" y="0px"
	 width="65px" height="65px" viewBox="0 0 65 65" enable-background="new 0 0 65 65" xml:space="preserve">
<path fill="#FFFFFF" d="M31.685,56.947c0.941-2.728-0.464-7.736,3.262-10.26c8.633-3.937,8.008-6.304,8.035-7.537
	c0.026-1.234-0.938-2.002-2.062-1.138c-1.287,1.068-4.756,2.576-6.163,2.043c-1.406-0.532-1.121-2.312,0.167-5.139
	c0.449-0.943,0.489-1.033,0.761-1.547l13.559-18.536l-0.008-0.007c0.521-0.438,2.216-1.733,3.473-1.189
	c0.312-0.081,2.871-6.704,4.166-6.698c1.081,0.002,1.537,0.197,2.4-0.899c0.729-0.936,0.459-1.953-0.516-2.716
	c-0.322-0.248-1.189-1.096-2.64-0.203c-0.103,0.066-1.198,0.755-1.403,0.888l-0.28-0.445c0.22-0.256,0.28-0.593,0.12-0.842
	c-0.201-0.314-0.689-0.372-1.088-0.119c-0.395,0.25-0.551,0.714-0.346,1.035c0.148,0.231,0.438,0.321,0.74,0.262l0.303,0.466
	c-0.336,0.216-0.72,0.467-1.147,0.748l-0.291-0.46c0.22-0.254,0.282-0.591,0.124-0.841c-0.205-0.32-0.693-0.375-1.09-0.121
	c-0.397,0.252-0.549,0.715-0.348,1.037c0.147,0.229,0.439,0.321,0.742,0.258l0.311,0.483c-0.369,0.238-0.75,0.489-1.146,0.749
	l-0.305-0.477c0.225-0.256,0.282-0.591,0.123-0.842c-0.203-0.317-0.687-0.373-1.085-0.122c-0.395,0.254-0.553,0.717-0.348,1.036
	c0.146,0.232,0.44,0.321,0.742,0.263l0.316,0.499c-0.373,0.25-0.76,0.5-1.141,0.749l-0.316-0.493
	c0.224-0.254,0.283-0.591,0.123-0.84c-0.205-0.321-0.688-0.375-1.085-0.121c-0.396,0.252-0.556,0.715-0.349,1.033
	c0.148,0.229,0.44,0.323,0.742,0.261l0.338,0.518c-0.396,0.258-0.779,0.508-1.15,0.749l0.385-0.228
	c-0.412,0.271-0.799,0.523-1.146,0.75l-0.553,0.358c-0.682,0.447-1.111,0.728-1.111,0.728s-0.404,0.282-0.213,0.656
	c0.184,0.351,0.309,1.046,0.193,1.346l-14.54,17.672c-1.265-0.462-2.492-0.909-3.414-2.375c-1.491-2.355,3.229-6.173,1.896-7.569
	c-0.655-0.688-5.475-1.957-8.404,7.853c-2.438,10.615-7.33,6.889-13.734,11.752c-6.406,4.87-4.314,12.483,4.309,19.248
	C20.216,65.391,29.659,64.029,31.685,56.947z M22.307,50.066l-4.342-3.412c-0.451-0.35-0.551-0.976-0.223-1.396
	c0.327-0.416,0.96-0.468,1.409-0.112l4.343,3.402c0.453,0.354,0.552,0.979,0.223,1.398C23.387,50.367,22.76,50.42,22.307,50.066z
	 M24.134,47.732l-4.34-3.404c-0.45-0.359-0.549-0.982-0.223-1.4c0.328-0.417,0.959-0.467,1.412-0.115l4.341,3.408
	c0.451,0.354,0.55,0.978,0.221,1.396C25.218,48.035,24.587,48.088,24.134,47.732z M28.048,42.744l-4.34-3.404
	c-0.448-0.357-0.547-0.979-0.222-1.4c0.327-0.416,0.96-0.47,1.407-0.116l4.343,3.409c0.453,0.354,0.552,0.979,0.223,1.396
	C29.134,43.047,28.503,43.1,28.048,42.744z M29.883,40.414l-4.344-3.408c-0.449-0.354-0.55-0.982-0.223-1.396
	c0.327-0.418,0.958-0.469,1.411-0.118l4.342,3.409c0.451,0.355,0.55,0.977,0.221,1.396C30.962,40.711,30.333,40.768,29.883,40.414z"
	/>
</svg>
