<?xml version="1.0" encoding="utf-8"?>
<!-- Generator: Adobe Illustrator 16.0.1, SVG Export Plug-In . SVG Version: 6.00 Build 0)  -->
<!DOCTYPE svg PUBLIC "-//W3C//DTD SVG 1.1//EN" "http://www.w3.org/Graphics/SVG/1.1/DTD/svg11.dtd">
<svg version="1.1" id="Layer_1" xmlns="http://www.w3.org/2000/svg" xmlns:xlink="http://www.w3.org/1999/xlink" x="0px" y="0px"
	 width="65px" height="65px" viewBox="0 0 65 65" enable-background="new 0 0 65 65" xml:space="preserve">
<g>
	<path fill="#FFFFFF" d="M52.321,6.947L52.321,6.947L52.318,6.95c-0.405,0.241-0.604,0.717-0.49,1.174
		c1.106,4.471-7.943,13.901-11.811,16.21L26.78,32.235l-0.934-1.566l1.067-0.638l-0.51-0.853l-3.205,1.91l0.512,0.855l1.067-0.638
		l0.935,1.565l-3.843,2.295L20.935,33.6l1.069-0.636l-0.512-0.854l-3.201,1.912l0.51,0.854l1.067-0.638l0.934,1.566l-3.841,2.294
		l-0.936-1.565l1.066-0.638l-0.511-0.854l-3.2,1.911l0.51,0.854l1.066-0.638l0.935,1.564l-2.455,1.468
		c-0.55,0.326-1.053,0.7-1.512,1.109c-1.801,1.601-2.915,3.771-3.236,6.067c-0.301,2.166,0.1,4.443,1.306,6.462
		c2.741,4.591,8.707,6.096,13.297,3.354l1.601-0.958l1.422,2.382c0.152,0.259,0.486,0.342,0.744,0.188l2.269-1.356
		c0.257-0.153,0.341-0.486,0.188-0.742l-1.419-2.381l1.708-1.021l1.421,2.379c0.156,0.258,0.487,0.343,0.744,0.189l2.271-1.355
		c0.257-0.155,0.341-0.488,0.188-0.746l-1.421-2.379l1.121-0.669l0.586-0.351l1.42,2.38c0.154,0.257,0.486,0.343,0.744,0.188
		l2.271-1.356c0.256-0.153,0.341-0.485,0.188-0.744l-1.421-2.379l3.31-1.975c4.59-2.74,6.095-8.706,3.354-13.298l-0.127-0.214
		c-0.59-0.984-1.323-1.824-2.031-2.294l-3.552,2.12c0.88,0.275,1.763,1.053,2.382,2.087l0.125,0.212
		c1.687,2.826,0.761,6.497-2.064,8.183l-3.307,1.977L29.76,34.8l12.167-7.266c3.87-2.312,16.463-5.804,19.872-2.708
		c0.349,0.316,0.861,0.367,1.266,0.125l0.005-0.001C64.31,24.21,53.561,6.209,52.321,6.947z M21.381,53.991
		c-2.824,1.688-6.495,0.762-8.181-2.065c-1.757-2.94-0.795-6.765,2.148-8.524l1.389-0.828l6.246,10.463L21.381,53.991z
		 M26.185,51.123L19.94,40.661l1.706-1.016l6.248,10.458L26.185,51.123z M32.803,47.172l-0.584,0.351l-1.124,0.669l-6.244-10.462
		l1.122-0.669l0.584-0.349L32.803,47.172z"/>
	<path fill="#FFFFFF" d="M7.68,51.276L4.244,53.32L4.02,52.946l-3.421,1.43c-0.403,0.241,1.925,4.143,2.331,3.9l2.881-2.331
		l-0.223-0.374l2.583-1.544L7.68,51.276z"/>
</g>
<rect x="7.38" y="40.444" transform="matrix(-0.8555 0.5178 -0.5178 -0.8555 70.9229 63.7726)" fill="#FFFFFF" width="38.367" height="2.676"/>
</svg>
