<?xml version="1.0" encoding="utf-8"?>
<!-- Generator: Adobe Illustrator 16.0.1, SVG Export Plug-In . SVG Version: 6.00 Build 0)  -->
<!DOCTYPE svg PUBLIC "-//W3C//DTD SVG 1.1//EN" "http://www.w3.org/Graphics/SVG/1.1/DTD/svg11.dtd">
<svg version="1.1" id="Layer_1" xmlns="http://www.w3.org/2000/svg" xmlns:xlink="http://www.w3.org/1999/xlink" x="0px" y="0px"
	 width="65px" height="65px" viewBox="0 0 65 65" enable-background="new 0 0 65 65" xml:space="preserve">
<line fill="none" stroke="#FFFFFF" stroke-width="2.3651" stroke-linecap="round" stroke-linejoin="round" stroke-miterlimit="10" x1="2.561" y1="20.875" x2="62.15" y2="24.798"/>
<line fill="none" stroke="#FFFFFF" stroke-width="2.3651" stroke-linecap="round" stroke-linejoin="round" stroke-miterlimit="10" x1="3.33" y1="16.974" x2="62.4" y2="24.798"/>
<line fill="none" stroke="#FFFFFF" stroke-width="2.3651" stroke-linecap="round" stroke-linejoin="round" stroke-miterlimit="10" x1="4.186" y1="13.12" x2="62.4" y2="24.798"/>
<line fill="none" stroke="#FFFFFF" stroke-width="2.3651" stroke-linecap="round" stroke-linejoin="round" stroke-miterlimit="10" x1="5.38" y1="9.334" x2="62.4" y2="24.798"/>
<g>
	<path fill="#FFFFFF" d="M1.303,23.671v33.351h62.302V23.671H1.303z M61.254,54.967H3.656V35.232h57.598V54.967z"/>
	<g>
		<rect x="8.862" y="33.025" fill="#FFFFFF" width="3.33" height="15.713"/>
		<rect x="15.355" y="33.025" fill="#FFFFFF" width="3.33" height="15.713"/>
	</g>
	<g>
		<rect x="24.847" y="33.025" fill="#FFFFFF" width="3.329" height="15.713"/>
		<rect x="37.833" y="33.025" fill="#FFFFFF" width="3.331" height="15.713"/>
		<rect x="31.339" y="33.025" fill="#FFFFFF" width="3.33" height="15.713"/>
	</g>
	<g>
		<rect x="47.491" y="33.025" fill="#FFFFFF" width="3.329" height="15.713"/>
		<rect x="53.982" y="33.025" fill="#FFFFFF" width="3.332" height="15.713"/>
	</g>
</g>
</svg>
