<?xml version="1.0" encoding="utf-8"?>
<!-- Generator: Adobe Illustrator 16.0.1, SVG Export Plug-In . SVG Version: 6.00 Build 0)  -->
<!DOCTYPE svg PUBLIC "-//W3C//DTD SVG 1.1//EN" "http://www.w3.org/Graphics/SVG/1.1/DTD/svg11.dtd">
<svg version="1.1" id="Layer_1" xmlns="http://www.w3.org/2000/svg" xmlns:xlink="http://www.w3.org/1999/xlink" x="0px" y="0px"
	 width="65px" height="65px" viewBox="0 0 65 65" enable-background="new 0 0 65 65" xml:space="preserve">
<g>
	<path fill="#FFFFFF" d="M61.765,32.031c0.016,5.588,0.078,27.502,0.078,27.502c0,1.287-0.925,2.33-2.066,2.33h-2.985V46.23
		c0-1.425-1.023-2.578-2.286-2.578h-0.73v10.473c0,0.178-0.129,0.324-0.288,0.324h-3.625c-0.158,0-0.287-0.146-0.287-0.324V43.652
		h-4.29v10.473c0,0.178-0.128,0.324-0.288,0.324h-3.625c-0.157,0-0.287-0.146-0.287-0.324V43.652h-8.807v10.473
		c0,0.178-0.128,0.324-0.287,0.324h-3.624c-0.159,0-0.287-0.146-0.287-0.324V43.652h-3.51v10.473c0,0.178-0.128,0.324-0.288,0.324
		h-3.623c-0.158,0-0.289-0.146-0.289-0.324V43.652h-3.505v10.473c0,0.178-0.13,0.324-0.289,0.324h-3.624
		c-0.16,0-0.288-0.146-0.288-0.324V43.652h-1.235c-1.264,0-2.287,1.153-2.287,2.578v12.944l48.003,0.067l-0.353,2.621H9.141H5.9
		c-1.143,0-2.066-1.043-2.066-2.33V3.53h23.588C27.422,3.53,28.104,30.678,61.765,32.031z"/>
</g>
</svg>
