<?xml version="1.0" encoding="utf-8"?>
<!-- Generator: Adobe Illustrator 16.0.1, SVG Export Plug-In . SVG Version: 6.00 Build 0)  -->
<!DOCTYPE svg PUBLIC "-//W3C//DTD SVG 1.1//EN" "http://www.w3.org/Graphics/SVG/1.1/DTD/svg11.dtd">
<svg version="1.1" id="Layer_1" xmlns="http://www.w3.org/2000/svg" xmlns:xlink="http://www.w3.org/1999/xlink" x="0px" y="0px"
	 width="65px" height="65px" viewBox="0 0 65 65" enable-background="new 0 0 65 65" xml:space="preserve">
<path fill="#FFFFFF" d="M46.514,11.355c-2.727-2.381-36.72,30.553-38.598,32.36c-1.879,1.805,8.333,12.569,9.822,11.217
	c1.489-1.352,40.583-31.2,40.762-33.103C58.68,19.925,49.24,13.737,46.514,11.355z M14.68,37.566
	c0.242-0.258,0.65-0.272,0.912-0.036l1.894,1.716c0.262,0.238,0.277,0.638,0.036,0.895c-0.242,0.256-0.65,0.271-0.911,0.034
	l-1.896-1.716C14.455,38.223,14.439,37.822,14.68,37.566z M19.872,52.448c-0.085,0.077-0.191,0.115-0.297,0.115
	c-0.12,0-0.24-0.049-0.327-0.146l-8.625-9.498c-0.164-0.181-0.151-0.46,0.03-0.624c0.182-0.164,0.461-0.151,0.625,0.03l8.625,9.498
	C20.065,52.005,20.052,52.284,19.872,52.448z M20.995,37.612c-0.243,0.256-0.65,0.271-0.911,0.034l-1.895-1.716
	c-0.262-0.236-0.278-0.637-0.035-0.894c0.24-0.256,0.648-0.271,0.911-0.035l1.895,1.717C21.221,36.955,21.237,37.355,20.995,37.612z
	 M22.881,36.639c-0.242,0.258-0.65,0.272-0.912,0.035l-1.895-1.715c-0.261-0.237-0.278-0.637-0.035-0.895
	c0.242-0.256,0.649-0.271,0.911-0.034l1.895,1.716C23.106,35.982,23.122,36.383,22.881,36.639z M24.965,35.278
	c-0.242,0.256-0.651,0.271-0.912,0.034l-1.895-1.715c-0.262-0.237-0.277-0.638-0.035-0.894c0.24-0.256,0.648-0.272,0.911-0.035
	l1.895,1.716C25.19,34.621,25.206,35.021,24.965,35.278z M27.445,34.111c-0.242,0.257-0.65,0.271-0.912,0.035l-1.895-1.716
	c-0.262-0.236-0.277-0.638-0.035-0.894c0.24-0.256,0.648-0.272,0.91-0.036l1.896,1.717C27.67,33.455,27.686,33.855,27.445,34.111z
	 M29.528,33.528c-0.243,0.256-0.65,0.271-0.911,0.034l-1.895-1.716c-0.262-0.236-0.278-0.638-0.037-0.894
	c0.242-0.256,0.65-0.272,0.912-0.035l1.895,1.716C29.754,32.871,29.77,33.271,29.528,33.528z M31.81,33.041
	c-0.242,0.257-0.649,0.271-0.912,0.035l-1.895-1.716c-0.261-0.237-0.277-0.638-0.035-0.895c0.242-0.256,0.65-0.271,0.911-0.035
	l1.896,1.717C32.037,32.384,32.052,32.784,31.81,33.041z M34.093,32.555c-0.243,0.257-0.649,0.272-0.911,0.036l-1.895-1.716
	c-0.262-0.237-0.277-0.637-0.035-0.894c0.24-0.256,0.648-0.272,0.91-0.035l1.895,1.716C34.318,31.899,34.336,32.298,34.093,32.555z
	 M36.375,32.069c-0.242,0.257-0.648,0.271-0.912,0.035l-1.895-1.716c-0.262-0.237-0.277-0.637-0.035-0.893
	c0.24-0.256,0.65-0.272,0.91-0.035l1.896,1.716C36.602,31.413,36.617,31.813,36.375,32.069z M38.656,31.583
	c-0.241,0.256-0.649,0.272-0.91,0.035l-1.896-1.716c-0.26-0.237-0.277-0.638-0.035-0.895c0.242-0.256,0.65-0.271,0.912-0.035
	l1.895,1.716C38.883,30.926,38.898,31.326,38.656,31.583z M40.939,31.097c-0.242,0.256-0.65,0.272-0.912,0.035l-1.896-1.716
	c-0.262-0.237-0.276-0.637-0.034-0.894c0.239-0.256,0.647-0.272,0.91-0.035l1.895,1.716C41.166,30.44,41.182,30.84,40.939,31.097z
	 M43.223,30.611c-0.242,0.256-0.649,0.271-0.912,0.035l-1.896-1.715c-0.261-0.236-0.276-0.637-0.035-0.894
	c0.242-0.256,0.649-0.272,0.912-0.036l1.894,1.716C43.448,29.954,43.463,30.354,43.223,30.611z M45.502,30.123
	c-0.24,0.257-0.648,0.272-0.91,0.036l-1.895-1.716c-0.262-0.237-0.277-0.639-0.035-0.894c0.24-0.257,0.648-0.271,0.91-0.036
	l1.896,1.716C45.729,29.467,45.744,29.867,45.502,30.123z M47.785,29.638c-0.241,0.256-0.648,0.272-0.91,0.036l-1.895-1.716
	c-0.263-0.237-0.279-0.637-0.037-0.894c0.242-0.256,0.649-0.272,0.912-0.035l1.895,1.716C48.012,28.981,48.027,29.382,47.785,29.638
	z M54.145,23.707c-0.087,0.097-0.208,0.146-0.328,0.146c-0.105,0-0.212-0.038-0.296-0.114l-10.627-9.591
	c-0.182-0.164-0.196-0.443-0.032-0.625c0.162-0.181,0.444-0.195,0.624-0.032l10.627,9.591
	C54.294,23.246,54.309,23.525,54.145,23.707z"/>
</svg>
