<?xml version="1.0" encoding="utf-8"?>
<!-- Generator: Adobe Illustrator 16.0.1, SVG Export Plug-In . SVG Version: 6.00 Build 0)  -->
<!DOCTYPE svg PUBLIC "-//W3C//DTD SVG 1.1//EN" "http://www.w3.org/Graphics/SVG/1.1/DTD/svg11.dtd">
<svg version="1.1" id="Layer_1" xmlns="http://www.w3.org/2000/svg" xmlns:xlink="http://www.w3.org/1999/xlink" x="0px" y="0px"
	 width="65px" height="65px" viewBox="0 0 65 65" enable-background="new 0 0 65 65" xml:space="preserve">
<g>
	<path fill="#FFFFFF" d="M57.475,15.189l-1.729-1.441l0.024-0.015c0.271-0.165,0.445-0.454,0.469-0.777
		c0.024-0.32-0.109-0.631-0.354-0.835l-1.945-1.617c-0.487-0.405-1.147-0.514-1.733-0.283l-0.479,0.186l-1.861-1.548
		c-0.439-0.366-1.082-0.296-1.439,0.155c-0.354,0.449-0.289,1.111,0.15,1.475l0.944,0.786l-2.002,0.786l-1.783-1.483
		c-0.438-0.364-1.084-0.296-1.439,0.155c-0.354,0.453-0.288,1.113,0.15,1.477l0.862,0.721l-1.416,0.555l-8.133,10.293
		c-6.434-0.132-17.257,4.115-22.827,11.163c-7.121,9.01-5.353,17.58,1.001,22.862c6.354,5.286,14.888,5.289,22.009-3.722
		c6.011-7.608,7.646-20.678,5.52-26.643l7.618-9.639l1.205-0.733l1.77,1.471c0.22,0.18,0.49,0.253,0.75,0.228
		c0.261-0.029,0.51-0.157,0.688-0.383c0.356-0.451,0.29-1.111-0.149-1.473l-1.18-0.983l1.703-1.036l2.318,1.929
		c0.219,0.182,0.49,0.255,0.751,0.226c0.26-0.027,0.51-0.157,0.688-0.383C57.979,16.214,57.914,15.551,57.475,15.189z
		 M22.829,54.745l-1.061-0.88l-4.288-3.568l-1.059-0.879c0.149-0.972,1.089-2.164,1.987-2.516l1.058,0.881
		c1.66-0.56,4.479,1.784,4.289,3.566l1.06,0.883C24.652,53.277,23.792,54.365,22.829,54.745z M24.009,38.452
		c-0.088-1.492,0.369-3.021,1.396-4.246c0.986-1.179,2.325-1.859,3.717-2.03c0.055-0.005,0.109-0.019,0.164-0.021
		c0.281-0.029,0.423,0.323,0.24,0.542l-2.923,3.489l-2.034,2.424C24.385,38.831,24.024,38.741,24.009,38.452z M26.897,43.277
		c-0.302-0.182-0.594-0.393-0.869-0.64c-0.277-0.241-0.526-0.507-0.748-0.787c-0.266-0.342-0.213-0.832,0.067-1.167l2.733-3.264
		l3.557-4.246c0.282-0.333,0.747-0.462,1.116-0.24c0.305,0.182,0.597,0.395,0.871,0.636c0.278,0.243,0.526,0.511,0.746,0.789
		c0.268,0.342,0.216,0.832-0.064,1.165l-3.491,4.169l-2.801,3.344C27.734,43.371,27.269,43.498,26.897,43.277z M34.245,42.003
		c-1.025,1.225-2.428,1.917-3.879,2.057c-0.282,0.027-0.423-0.328-0.239-0.546l4.955-5.914c0.182-0.22,0.547-0.131,0.562,0.158
		C35.728,39.251,35.271,40.778,34.245,42.003z"/>
	<path fill="#FFFFFF" d="M58.253,17.209c-0.542,0.684-0.439,1.686,0.227,2.242c0.667,0.555,1.645,0.451,2.187-0.233
		c0.539-0.686,0.437-1.689-0.23-2.244C59.771,16.42,58.793,16.527,58.253,17.209z"/>
	<path fill="#FFFFFF" d="M56.603,21.271c0.54-0.682,0.438-1.687-0.228-2.242c-0.667-0.554-1.645-0.451-2.183,0.233
		c-0.542,0.684-0.44,1.688,0.228,2.242C55.085,22.059,56.063,21.955,56.603,21.271z"/>
	<path fill="#FFFFFF" d="M45.763,5.785c-0.539,0.684-0.438,1.686,0.227,2.24c0.667,0.553,1.646,0.449,2.186-0.233
		c0.539-0.684,0.437-1.688-0.229-2.244C47.28,4.995,46.303,5.101,45.763,5.785z"/>
	<path fill="#FFFFFF" d="M41.199,8.03c-0.54,0.684-0.438,1.69,0.231,2.243c0.664,0.551,1.642,0.446,2.184-0.236
		c0.541-0.682,0.438-1.686-0.229-2.242C42.719,7.242,41.74,7.346,41.199,8.03z"/>
</g>
</svg>
