<?xml version="1.0" encoding="utf-8"?>
<!-- Generator: Adobe Illustrator 16.0.1, SVG Export Plug-In . SVG Version: 6.00 Build 0)  -->
<!DOCTYPE svg PUBLIC "-//W3C//DTD SVG 1.1//EN" "http://www.w3.org/Graphics/SVG/1.1/DTD/svg11.dtd">
<svg version="1.1" id="Layer_1" xmlns="http://www.w3.org/2000/svg" xmlns:xlink="http://www.w3.org/1999/xlink" x="0px" y="0px"
	 width="65px" height="65px" viewBox="0 0 65 65" enable-background="new 0 0 65 65" xml:space="preserve">
<path fill-rule="evenodd" clip-rule="evenodd" fill="#FFFFFF" d="M57.632,21.718h2.894c0.91,0,1.654,0.749,1.654,1.653v17.59
	c0,0.904-0.75,1.654-1.654,1.654h-2.894c-0.905,0-1.654-0.745-1.654-1.654v-17.59C55.978,22.461,56.723,21.718,57.632,21.718
	L57.632,21.718z M23.761,50.97l26.381-2.253c1.519-0.143,1.733,2.168,0.215,2.309l-26.346,2.648
	C24.146,52.761,24.058,51.849,23.761,50.97L23.761,50.97z M42.422,12.354l-26.418-1.71c-1.521-0.109-1.688,2.203-0.167,2.312
	l26.39,2.107C42.077,14.159,42.144,13.226,42.422,12.354L42.422,12.354z M7.072,22.095c0.81,0,1.466,0.656,1.466,1.465
	s-0.656,1.465-1.466,1.465c-0.809,0-1.465-0.656-1.465-1.465S6.263,22.095,7.072,22.095L7.072,22.095z M14.501,22.641
	c0.81,0,1.465,0.656,1.465,1.465c0,0.81-0.655,1.465-1.465,1.465c-0.809,0-1.464-0.656-1.464-1.465
	C13.037,23.297,13.693,22.641,14.501,22.641L14.501,22.641z M21.931,23.187c0.809,0,1.465,0.656,1.465,1.465
	c0,0.81-0.656,1.465-1.465,1.465s-1.465-0.655-1.465-1.465C20.466,23.842,21.122,23.187,21.931,23.187L21.931,23.187z M29.36,23.732
	c0.81,0,1.465,0.655,1.465,1.465c0,0.809-0.655,1.465-1.465,1.465c-0.809,0-1.465-0.656-1.465-1.465
	C27.896,24.388,28.552,23.732,29.36,23.732L29.36,23.732z M36.79,24.278c0.809,0,1.464,0.656,1.464,1.465
	c0,0.81-0.655,1.465-1.464,1.465c-0.81,0-1.465-0.656-1.465-1.465C35.325,24.934,35.98,24.278,36.79,24.278L36.79,24.278z
	 M44.22,24.824c0.808,0,1.465,0.656,1.465,1.465s-0.657,1.465-1.465,1.465c-0.811,0-1.466-0.656-1.466-1.465
	S43.409,24.824,44.22,24.824L44.22,24.824z M51.648,25.369c0.809,0,1.465,0.657,1.465,1.466S52.457,28.3,51.648,28.3
	s-1.465-0.656-1.465-1.465S50.84,25.369,51.648,25.369L51.648,25.369z M59.078,25.916c-0.81,0-1.465,0.656-1.465,1.465
	s0.655,1.465,1.465,1.465c0.809,0,1.465-0.656,1.465-1.465S59.887,25.916,59.078,25.916L59.078,25.916z M7.072,42.236
	c0.81,0,1.466-0.654,1.466-1.464s-0.656-1.465-1.466-1.465c-0.809,0-1.465,0.655-1.465,1.465S6.263,42.236,7.072,42.236
	L7.072,42.236z M14.501,41.692c0.81,0,1.465-0.657,1.465-1.466s-0.655-1.465-1.465-1.465c-0.809,0-1.464,0.656-1.464,1.465
	S13.693,41.692,14.501,41.692L14.501,41.692z M21.931,41.146c0.809,0,1.465-0.656,1.465-1.466c0-0.809-0.656-1.464-1.465-1.464
	s-1.465,0.655-1.465,1.464C20.466,40.49,21.122,41.146,21.931,41.146L21.931,41.146z M29.36,40.601c0.81,0,1.465-0.656,1.465-1.465
	c0-0.811-0.655-1.465-1.465-1.465c-0.809,0-1.465,0.654-1.465,1.465C27.896,39.944,28.552,40.601,29.36,40.601L29.36,40.601z
	 M36.79,40.054c0.809,0,1.464-0.656,1.464-1.465s-0.655-1.465-1.464-1.465c-0.81,0-1.465,0.656-1.465,1.465
	S35.98,40.054,36.79,40.054L36.79,40.054z M44.22,39.508c0.808,0,1.465-0.656,1.465-1.465s-0.657-1.465-1.465-1.465
	c-0.811,0-1.466,0.656-1.466,1.465S43.409,39.508,44.22,39.508L44.22,39.508z M51.648,38.963c0.809,0,1.465-0.656,1.465-1.465
	c0-0.81-0.656-1.466-1.465-1.466s-1.465,0.656-1.465,1.466C50.184,38.307,50.84,38.963,51.648,38.963L51.648,38.963z M59.078,38.417
	c0.809,0,1.465-0.655,1.465-1.466c0-0.809-0.656-1.464-1.465-1.464c-0.81,0-1.465,0.655-1.465,1.464
	C57.613,37.762,58.269,38.417,59.078,38.417L59.078,38.417z M5.674,16.248c-0.911,0-1.655,0.745-1.655,1.655v28.528
	c0,0.909,0.745,1.653,1.655,1.653h2.893c0.909,0,1.654-0.744,1.654-1.653V17.902c0-0.91-0.745-1.655-1.654-1.655H5.674L5.674,16.248
	z M13.095,17.029c-0.909,0-1.653,0.744-1.653,1.654v26.965c0,0.91,0.744,1.654,1.653,1.654h2.894c0.909,0,1.655-0.744,1.655-1.654
	V18.684c0-0.909-0.745-1.654-1.655-1.654H13.095L13.095,17.029z M20.519,17.811c-0.91,0-1.654,0.745-1.654,1.654v25.403
	c0,0.909,0.745,1.653,1.654,1.653h2.894c0.908,0,1.654-0.746,1.654-1.653V19.465c0-0.908-0.744-1.654-1.654-1.654H20.519
	L20.519,17.811z M27.94,18.592c-0.909,0-1.654,0.745-1.654,1.654v23.84c0,0.91,0.747,1.654,1.654,1.654h2.895
	c0.907,0,1.653-0.746,1.653-1.654v-23.84c0-0.907-0.743-1.654-1.653-1.654H27.94L27.94,18.592z M35.363,19.374
	c-0.91,0-1.654,0.744-1.654,1.654v22.277c0,0.91,0.749,1.654,1.654,1.654h2.895c0.906,0,1.652-0.748,1.652-1.654V21.027
	c0-0.906-0.743-1.654-1.652-1.654H35.363L35.363,19.374z M42.787,20.155c-0.911,0-1.654,0.744-1.654,1.654v20.715
	c0,0.91,0.748,1.654,1.654,1.654h2.893c0.906,0,1.654-0.748,1.654-1.654V21.809c0-0.906-0.743-1.654-1.654-1.654H42.787
	L42.787,20.155z M50.209,20.936c-0.91,0-1.654,0.745-1.654,1.654v19.152c0,0.91,0.748,1.654,1.654,1.654h2.894
	c0.905,0,1.653-0.75,1.653-1.654V22.59c0-0.905-0.744-1.654-1.653-1.654H50.209z"/>
<path fill-rule="evenodd" clip-rule="evenodd" fill="#FFFFFF" d="M48.314,14.343c-0.138,1.916-1.803,3.357-3.719,3.219
	c-1.916-0.138-3.357-1.804-3.219-3.72c0.138-1.917,1.804-3.358,3.719-3.219C47.013,10.761,48.455,12.427,48.314,14.343
	L48.314,14.343z"/>
<path fill-rule="evenodd" clip-rule="evenodd" fill="#FFFFFF" d="M18.296,52.713c0.179,1.912,1.874,3.318,3.786,3.141
	c1.914-0.178,3.32-1.873,3.142-3.786c-0.177-1.913-1.872-3.319-3.785-3.142C19.525,49.104,18.12,50.799,18.296,52.713L18.296,52.713
	z"/>
</svg>
