<?xml version="1.0" encoding="utf-8"?>
<!-- Generator: Adobe Illustrator 16.0.1, SVG Export Plug-In . SVG Version: 6.00 Build 0)  -->
<!DOCTYPE svg PUBLIC "-//W3C//DTD SVG 1.1//EN" "http://www.w3.org/Graphics/SVG/1.1/DTD/svg11.dtd">
<svg version="1.1" id="Layer_1" xmlns="http://www.w3.org/2000/svg" xmlns:xlink="http://www.w3.org/1999/xlink" x="0px" y="0px"
	 width="65px" height="65px" viewBox="0 0 65 65" enable-background="new 0 0 65 65" xml:space="preserve">
<path fill="#FFFFFF" d="M63.298,22.011c-0.135-0.521-0.44-0.934-0.797-1.302c-0.258-0.266-0.595-0.454-0.897-0.677
	c-0.746-0.549-1.598-0.894-2.457-1.209c-0.627-0.229-1.264-0.429-1.904-0.616c-0.762-0.223-1.526-0.425-2.297-0.619
	c-0.795-0.202-1.592-0.394-2.396-0.569c-0.836-0.183-1.676-0.353-2.52-0.506c-0.563-0.102-1.135-0.167-1.702-0.251
	c-0.487-0.074-0.974-0.164-1.462-0.228c-0.657-0.084-1.314-0.158-1.971-0.224c-0.455-0.045-0.914-0.063-1.369-0.104
	c-0.737-0.065-1.475-0.143-2.211-0.207c-0.31-0.027-0.619-0.032-0.928-0.052c-0.812-0.053-1.621-0.109-2.434-0.162
	c-0.827-0.054-1.653-0.112-2.48-0.159c-0.705-0.041-1.408-0.082-2.111-0.102c-0.749-0.02-1.496-0.018-2.245-0.024
	c-0.923-0.008-1.846-0.018-2.769-0.019c-0.26,0-0.524,0.005-0.781,0.037c-0.498,0.06-0.992,0.142-1.487,0.213
	c-0.581,0.083-1.164,0.152-1.744,0.246c-0.858,0.14-1.716,0.294-2.571,0.449c-0.48,0.086-0.957,0.179-1.433,0.285
	c-0.793,0.175-1.584,0.366-2.376,0.549c-0.502,0.115-1.008,0.21-1.504,0.344c-0.791,0.214-1.577,0.45-2.363,0.683
	c-0.683,0.202-1.369,0.393-2.039,0.626c-0.63,0.221-1.246,0.483-1.861,0.743c-0.706,0.299-1.413,0.601-2.108,0.928
	c-0.712,0.336-1.429,0.673-2.112,1.065c-0.658,0.382-1.289,0.818-1.91,1.258c-0.828,0.587-1.515,1.315-2.041,2.188
	c-0.805,1.337-0.968,2.739-0.378,4.203c0.318,0.788,0.84,1.438,1.438,2.032c0.79,0.79,1.669,1.472,2.599,2.091
	c1.703,1.133,3.506,2.073,5.394,2.858c0.784,0.328,1.573,0.654,2.337,1.023c0.632,0.308,1.073,0.799,1.257,1.51
	c0.165,0.635,0.362,1.262,0.589,1.875c0.452,1.218,1.288,2.075,2.537,2.466c0.46,0.143,0.956,0.176,1.439,0.243
	c0.888,0.123,1.461,0.606,1.7,1.473c0.064,0.23,0.111,0.469,0.15,0.704c0.122,0.784,0.201,1.577,0.365,2.351
	c0.302,1.428,1.175,2.354,2.578,2.778c0.968,0.292,1.958,0.358,3.115,0.35c0.187-0.012,0.53-0.024,0.87-0.058
	c1.022-0.1,1.924-0.464,2.614-1.25c0.477-0.545,0.751-1.206,0.975-1.887c0.137-0.413,0.235-0.843,0.388-1.248
	c0.278-0.736,0.579-1.461,0.882-2.188c0.37-0.888,0.726-1.787,1.136-2.659c0.568-1.198,1.463-2.144,2.464-2.989
	c0.91-0.771,1.988-1.27,3.065-1.743c2.4-1.054,4.812-2.078,7.223-3.106c2.797-1.192,5.646-2.263,8.366-3.638
	c1.925-0.973,3.845-1.954,5.562-3.272c0.631-0.484,1.236-1.024,1.766-1.616C63.176,24.091,63.593,23.148,63.298,22.011z
	 M14.875,29.844c-2.106,0-3.813-1.472-3.813-3.289c0-1.816,1.707-3.289,3.813-3.289s3.813,1.472,3.813,3.289
	C18.688,28.372,16.981,29.844,14.875,29.844z M18.857,40.803c-1.303,0.001-1.794-0.641-1.461-1.898
	c0.28-1.053,0.982-1.642,2.024-1.844c0.587-0.115,0.926,0.062,1.22,0.591C21.508,39.208,20.607,40.798,18.857,40.803z
	 M29.703,49.159c-0.232,0.003-0.464,0.015-0.694,0.01c-0.347-0.008-0.696-0.03-1.044-0.041c-0.613-0.021-1.23-0.002-1.839-0.063
	c-0.765-0.075-1.529-0.188-2.279-0.347c-0.286-0.062-0.535-0.296-0.8-0.45c0.01-0.039,0.02-0.078,0.031-0.114
	c0.284,0.045,0.566,0.095,0.851,0.134c0.346,0.047,0.69,0.102,1.037,0.123c1.307,0.082,2.615,0.134,3.918,0.243
	c0.286,0.023,0.556,0.243,0.833,0.376C29.713,49.072,29.707,49.115,29.703,49.159z M28.513,20.46c-2.105,0-3.812-0.888-3.812-1.984
	s1.707-1.984,3.812-1.984c2.105,0,3.812,0.888,3.812,1.984S30.618,20.46,28.513,20.46z M41.105,28.27
	c-1.602,0-2.899-1.12-2.899-2.501s1.298-2.501,2.899-2.501s2.9,1.12,2.9,2.501S42.707,28.27,41.105,28.27z M49.755,20.723
	c-1.526,0-2.765-0.644-2.765-1.438c0-0.794,1.238-1.438,2.765-1.438c1.527,0,2.765,0.644,2.765,1.438
	C52.52,20.079,51.282,20.723,49.755,20.723z"/>
</svg>
