<?xml version="1.0" encoding="utf-8"?>
<!-- Generator: Adobe Illustrator 16.0.1, SVG Export Plug-In . SVG Version: 6.00 Build 0)  -->
<!DOCTYPE svg PUBLIC "-//W3C//DTD SVG 1.1//EN" "http://www.w3.org/Graphics/SVG/1.1/DTD/svg11.dtd">
<svg version="1.1" id="Layer_1" xmlns="http://www.w3.org/2000/svg" xmlns:xlink="http://www.w3.org/1999/xlink" x="0px" y="0px"
	 width="65px" height="65px" viewBox="0 0 65 65" enable-background="new 0 0 65 65" xml:space="preserve">
<g>
	<path fill="#FFFFFF" d="M54.116,28.291h-2.839c-4.713,0-8.972-3.163-10.83-8.041l-2.553-6.693
		c-2.171-5.694-7.142-9.385-12.642-9.385h-7.14c-7.887,0-14.279,7.206-14.279,16.095v38.185c0,1.287,0.924,2.33,2.066,2.33h3.24
		l48.125,0.047l-0.122-2.668L9.141,58.094V45.148c0-1.426,1.023-2.578,2.287-2.578h1.235v10.473c0,0.178,0.128,0.324,0.288,0.324
		h3.624c0.159,0,0.289-0.146,0.289-0.324V42.57h3.505v10.473c0,0.178,0.131,0.324,0.289,0.324h3.623c0.16,0,0.288-0.146,0.288-0.324
		V42.57h3.51v10.473c0,0.178,0.128,0.324,0.287,0.324h3.624c0.159,0,0.287-0.146,0.287-0.324V42.57h8.807v10.473
		c0,0.178,0.13,0.324,0.287,0.324h3.625c0.16,0,0.288-0.146,0.288-0.324V42.57h4.29v10.473c0,0.178,0.129,0.324,0.287,0.324h3.625
		c0.159,0,0.288-0.146,0.288-0.324V42.57h0.73c1.263,0,2.286,1.152,2.286,2.578v15.633h2.985c1.142,0,2.066-1.043,2.066-2.33V37.002
		C61.843,32.192,58.383,28.291,54.116,28.291z"/>
</g>
</svg>
