<?xml version="1.0" encoding="UTF-8" standalone="no"?>
<!-- Created with Inkscape (http://www.inkscape.org/) -->

<svg
   xmlns:dc="http://purl.org/dc/elements/1.1/"
   xmlns:cc="http://creativecommons.org/ns#"
   xmlns:rdf="http://www.w3.org/1999/02/22-rdf-syntax-ns#"
   xmlns:svg="http://www.w3.org/2000/svg"
   xmlns="http://www.w3.org/2000/svg"
   xmlns:sodipodi="http://sodipodi.sourceforge.net/DTD/sodipodi-0.dtd"
   xmlns:inkscape="http://www.inkscape.org/namespaces/inkscape"
   id="svg3116"
   version="1.1"
   inkscape:version="0.48.4 r9939"
   width="50"
   height="50"
   sodipodi:docname="beat4.svg">
  <metadata
     id="metadata3122">
    <rdf:RDF>
      <cc:Work
         rdf:about="">
        <dc:format>image/svg+xml</dc:format>
        <dc:type
           rdf:resource="http://purl.org/dc/dcmitype/StillImage" />
        <dc:title></dc:title>
      </cc:Work>
    </rdf:RDF>
  </metadata>
  <defs
     id="defs3120" />
  <sodipodi:namedview
     pagecolor="#ffffff"
     bordercolor="#FFFFFF"
     borderopacity="1"
     objecttolerance="10"
     gridtolerance="10"
     guidetolerance="10"
     inkscape:pageopacity="0"
     inkscape:pageshadow="2"
     inkscape:window-width="501"
     inkscape:window-height="603"
     id="namedview3118"
     showgrid="false"
     inkscape:zoom="7.0538402"
     inkscape:cx="25"
     inkscape:cy="25.848289"
     inkscape:window-x="752"
     inkscape:window-y="27"
     inkscape:window-maximized="0"
     inkscape:current-layer="svg3116" />
  <path
     sodipodi:type="arc"
     style="fill:#FFFFFF"
     id="path3184"
     sodipodi:cx="13.793103"
     sodipodi:cy="21.957403"
     sodipodi:rx="3.5496957"
     sodipodi:ry="3.3975658"
     d="m 17.342799,21.957403 a 3.5496957,3.3975658 0 1 1 -7.099392,0 3.5496957,3.3975658 0 1 1 7.099392,0 z"
     transform="matrix(0,1,1,0,-7.0890282,6.5411017)" />
  <path
     transform="matrix(0,1,1,0,2.2699983,6.3889717)"
     sodipodi:type="arc"
     style="fill:#FFFFFF"
     id="path3184-0"
     sodipodi:cx="13.793103"
     sodipodi:cy="21.957403"
     sodipodi:rx="3.5496957"
     sodipodi:ry="3.3975658"
     d="m 17.342799,21.957403 a 3.5496957,3.3975658 0 1 1 -7.099392,0 3.5496957,3.3975658 0 1 1 7.099392,0 z" />
  <path
     transform="matrix(0,1,1,0,12.117322,6.4009857)"
     sodipodi:type="arc"
     style="fill:#FFFFFF"
     id="path3184-0-3"
     sodipodi:cx="13.793103"
     sodipodi:cy="21.957403"
     sodipodi:rx="3.5496957"
     sodipodi:ry="3.3975658"
     d="m 17.342799,21.957403 a 3.5496957,3.3975658 0 1 1 -7.099392,0 3.5496957,3.3975658 0 1 1 7.099392,0 z" />
  <path
     sodipodi:type="arc"
     style="fill:#FFFFFF"
     id="path3184-8"
     sodipodi:cx="13.793103"
     sodipodi:cy="21.957403"
     sodipodi:rx="3.5496957"
     sodipodi:ry="3.3975658"
     d="m 17.342799,21.957403 a 3.5496957,3.3975658 0 1 1 -7.099392,0 3.5496957,3.3975658 0 1 1 7.099392,0 z"
     transform="matrix(0,1,1,0,-6.7513968,17.017949)" />
  <path
     transform="matrix(0,1,1,0,2.6076292,16.865819)"
     sodipodi:type="arc"
     style="fill:#FFFFFF"
     id="path3184-0-9"
     sodipodi:cx="13.793103"
     sodipodi:cy="21.957403"
     sodipodi:rx="3.5496957"
     sodipodi:ry="3.3975658"
     d="m 17.342799,21.957403 a 3.5496957,3.3975658 0 1 1 -7.099392,0 3.5496957,3.3975658 0 1 1 7.099392,0 z" />
  <path
     transform="matrix(0,1,1,0,12.454953,16.877833)"
     sodipodi:type="arc"
     style="fill:#FFFFFF"
     id="path3184-0-3-1"
     sodipodi:cx="13.793103"
     sodipodi:cy="21.957403"
     sodipodi:rx="3.5496957"
     sodipodi:ry="3.3975658"
     d="m 17.342799,21.957403 a 3.5496957,3.3975658 0 1 1 -7.099392,0 3.5496957,3.3975658 0 1 1 7.099392,0 z" />
</svg>
