<?xml version="1.0" encoding="utf-8"?>
<!-- Generator: Adobe Illustrator 16.0.1, SVG Export Plug-In . SVG Version: 6.00 Build 0)  -->
<!DOCTYPE svg PUBLIC "-//W3C//DTD SVG 1.1//EN" "http://www.w3.org/Graphics/SVG/1.1/DTD/svg11.dtd">
<svg version="1.1" id="Layer_1" xmlns="http://www.w3.org/2000/svg" xmlns:xlink="http://www.w3.org/1999/xlink" x="0px" y="0px"
	 width="65px" height="65px" viewBox="0 0 65 65" enable-background="new 0 0 65 65" xml:space="preserve">
<path fill="#FFFFFF" d="M26.881,37.016c4.22,0,7.641,3.42,7.641,7.64c0,4.219-3.42,7.639-7.641,7.639
	c-4.218,0-7.638-3.42-7.638-7.639C19.243,40.436,22.663,37.016,26.881,37.016"/>
<path fill="#FFFFFF" d="M32.881,8.016c4.221,0,7.641,3.42,7.641,7.639c0,4.219-3.42,7.639-7.641,7.639
	c-4.218,0-7.638-3.42-7.638-7.639C25.243,11.436,28.663,8.016,32.881,8.016"/>
<path fill="#FFFFFF" d="M51.881,20.016c4.221,0,7.641,3.42,7.641,7.639c0,4.219-3.42,7.639-7.641,7.639
	c-4.218,0-7.638-3.42-7.638-7.639C44.243,23.436,47.663,20.016,51.881,20.016"/>
<path fill="#FFFFFF" d="M12.881,19.016c4.22,0,7.64,3.42,7.64,7.639c0,4.219-3.42,7.639-7.64,7.639c-4.218,0-7.638-3.42-7.638-7.639
	C5.243,22.436,8.663,19.016,12.881,19.016"/>
<path fill="#FFFFFF" d="M55.646,36.527c-1.158,0.492-2.43,0.767-3.766,0.767c-5.314,0-9.638-4.324-9.638-9.639
	c0-3.605,1.992-6.75,4.931-8.403c-1.432-1.149-2.999-2.139-4.687-2.917c-0.352,4.997-4.521,8.959-9.606,8.959
	c-5.037,0-9.175-3.885-9.596-8.814c-1.547,0.741-3.005,1.64-4.334,2.697c2.176,1.769,3.57,4.463,3.57,7.479
	c0,5.314-4.325,9.639-9.64,9.639c-0.854,0-1.677-0.122-2.465-0.331c-0.012,0.31-0.023,0.62-0.023,0.934
	c0,12.5,10.133,22.634,22.633,22.634c12.501,0,22.635-10.134,22.635-22.634C55.66,36.772,55.648,36.65,55.646,36.527z
	 M26.881,54.294c-5.315,0-9.638-4.324-9.638-9.639c0-5.315,4.324-9.64,9.638-9.64c5.315,0,9.641,4.324,9.641,9.64
	C36.521,49.97,32.196,54.294,26.881,54.294z M40.005,51.138c-0.417,0-0.755-0.338-0.755-0.755s0.338-0.755,0.755-0.755
	s0.755,0.338,0.755,0.755S40.422,51.138,40.005,51.138z M39,39c0-1.104,0.896-2,2-2h3c1.104,0,2,0.896,2,2s-0.896,2-2,2h-3
	C39.896,41,39,40.104,39,39z M44.721,52.645c-1.25,0-2.263-1.012-2.263-2.262c0-1.249,1.013-2.262,2.263-2.262
	c1.248,0,2.262,1.013,2.262,2.262C46.982,51.633,45.969,52.645,44.721,52.645z"/>
</svg>
