<?xml version="1.0" encoding="utf-8"?>
<!-- Generator: Adobe Illustrator 16.0.1, SVG Export Plug-In . SVG Version: 6.00 Build 0)  -->
<!DOCTYPE svg PUBLIC "-//W3C//DTD SVG 1.1//EN" "http://www.w3.org/Graphics/SVG/1.1/DTD/svg11.dtd">
<svg version="1.1" id="Layer_1" xmlns="http://www.w3.org/2000/svg" xmlns:xlink="http://www.w3.org/1999/xlink" x="0px" y="0px"
	 width="65px" height="65px" viewBox="0 0 65 65" enable-background="new 0 0 65 65" xml:space="preserve">
<g>
	<path fill="#FFFFFF" d="M50.23,50.853l-4.923-8.522l-4.925,8.522c-0.197,0.344-0.564,0.555-0.958,0.555
		c-0.396,0-0.763-0.211-0.961-0.555l-4.922-8.522l-4.927,8.522c-0.197,0.344-0.562,0.555-0.957,0.555
		c-0.397,0-0.763-0.211-0.963-0.555l-4.923-8.522l-4.923,8.522c-0.05,0.082-0.105,0.156-0.169,0.219v2.162H50.4v-2.164
		C50.336,51.005,50.278,50.935,50.23,50.853z"/>
	<path fill="#FFFFFF" d="M20.813,39.562c0.199-0.339,0.563-0.55,0.959-0.55s0.763,0.211,0.961,0.55l4.925,8.521l4.923-8.521
		c0.198-0.339,0.562-0.55,0.961-0.55c0.395,0,0.759,0.211,0.957,0.55l4.926,8.521l4.925-8.521c0.194-0.339,0.561-0.55,0.958-0.55
		c0.396,0,0.763,0.211,0.958,0.55l4.135,7.151v-9.419h-33.72v9.419L20.813,39.562z"/>
</g>
<g>
	<path fill="#FFFFFF" d="M14.987,35.35V33.82c0-0.766,0.618-1.385,1.383-1.385h34.339c0.767,0,1.385,0.619,1.385,1.385v1.529H14.987
		z"/>
	<path fill="#FFFFFF" d="M50.709,58.101H16.37c-0.765,0-1.383-0.619-1.383-1.385v-1.533h37.106v1.533
		C52.094,57.481,51.476,58.101,50.709,58.101z"/>
</g>
<g>
	<polygon fill="#FFFFFF" points="26.89,25.621 25.698,26.814 9.482,11.547 11.628,9.404 	"/>
	<path fill="#FFFFFF" d="M29.434,26.223c0.864,0.863,0.864,2.265,0,3.13c-0.867,0.867-2.268,0.867-3.136,0
		c-0.864-0.865-0.864-2.267,0-3.13C27.166,25.355,28.566,25.355,29.434,26.223z"/>
</g>
<g>
	<polygon fill="#FFFFFF" points="38.93,25.135 37.739,23.943 53.003,7.725 55.148,9.871 	"/>
	<circle fill="#FFFFFF" cx="36.764" cy="26.11" r="2.216"/>
</g>
</svg>
